<mxfile host="app.diagrams.net" agent="Mozilla/5.0 (Windows NT 10.0; Win64; x64; rv:137.0) Gecko/20100101 Firefox/137.0" version="26.2.9">
  <diagram name="Página-1" id="d_5IL4p2AetfCjKZ3xt0">
    <mxGraphModel dx="2856" dy="1518" grid="1" gridSize="10" guides="1" tooltips="1" connect="1" arrows="1" fold="1" page="1" pageScale="1" pageWidth="1169" pageHeight="827" math="0" shadow="0">
      <root>
        <mxCell id="0" />
        <mxCell id="1" parent="0" />
        <mxCell id="PbY_MZgcbPNX0MPxPYcz-104" value="" style="group" vertex="1" connectable="0" parent="1">
          <mxGeometry x="195" y="120" width="779.11" height="586" as="geometry" />
        </mxCell>
        <mxCell id="PbY_MZgcbPNX0MPxPYcz-102" value="" style="group" vertex="1" connectable="0" parent="PbY_MZgcbPNX0MPxPYcz-104">
          <mxGeometry width="779.11" height="492.77272727272725" as="geometry" />
        </mxCell>
        <mxCell id="PbY_MZgcbPNX0MPxPYcz-47" value="" style="group" vertex="1" connectable="0" parent="PbY_MZgcbPNX0MPxPYcz-102">
          <mxGeometry x="242.38977777777777" width="383.0158032478633" height="319.6363636363636" as="geometry" />
        </mxCell>
        <mxCell id="PbY_MZgcbPNX0MPxPYcz-46" value="" style="group" vertex="1" connectable="0" parent="PbY_MZgcbPNX0MPxPYcz-47">
          <mxGeometry x="73.24965811965812" width="309.76614512820515" height="319.6363636363636" as="geometry" />
        </mxCell>
        <mxCell id="PbY_MZgcbPNX0MPxPYcz-2" value="Personas" style="rounded=0;whiteSpace=wrap;html=1;" vertex="1" parent="PbY_MZgcbPNX0MPxPYcz-46">
          <mxGeometry y="79.9090909090909" width="213.08991452991452" height="106.54545454545455" as="geometry" />
        </mxCell>
        <mxCell id="PbY_MZgcbPNX0MPxPYcz-21" value="" style="group" vertex="1" connectable="0" parent="PbY_MZgcbPNX0MPxPYcz-46">
          <mxGeometry width="66.5905982905983" height="79.9090909090909" as="geometry" />
        </mxCell>
        <mxCell id="PbY_MZgcbPNX0MPxPYcz-5" value="" style="group;direction=west;" vertex="1" connectable="0" parent="PbY_MZgcbPNX0MPxPYcz-21">
          <mxGeometry x="19.977179487179487" y="26.636363636363637" width="26.636239316239315" height="53.27272727272727" as="geometry" />
        </mxCell>
        <mxCell id="PbY_MZgcbPNX0MPxPYcz-3" value="" style="endArrow=none;html=1;rounded=0;" edge="1" parent="PbY_MZgcbPNX0MPxPYcz-5">
          <mxGeometry width="50" height="50" relative="1" as="geometry">
            <mxPoint x="13.318119658119658" y="53.27272727272727" as="sourcePoint" />
            <mxPoint x="13.318119658119658" y="26.636363636363637" as="targetPoint" />
          </mxGeometry>
        </mxCell>
        <mxCell id="PbY_MZgcbPNX0MPxPYcz-4" value="" style="ellipse;whiteSpace=wrap;html=1;aspect=fixed;fillColor=light-dark(#FFFFFF,#33FFFF);" vertex="1" parent="PbY_MZgcbPNX0MPxPYcz-5">
          <mxGeometry width="26.636239316239315" height="26.636239316239315" as="geometry" />
        </mxCell>
        <mxCell id="PbY_MZgcbPNX0MPxPYcz-13" value="DNI" style="text;html=1;align=center;verticalAlign=middle;whiteSpace=wrap;rounded=0;fontSize=8;" vertex="1" parent="PbY_MZgcbPNX0MPxPYcz-21">
          <mxGeometry width="66.5905982905983" height="26.636363636363637" as="geometry" />
        </mxCell>
        <mxCell id="PbY_MZgcbPNX0MPxPYcz-22" value="" style="group" vertex="1" connectable="0" parent="PbY_MZgcbPNX0MPxPYcz-46">
          <mxGeometry x="66.5905982905983" width="66.5905982905983" height="79.9090909090909" as="geometry" />
        </mxCell>
        <mxCell id="PbY_MZgcbPNX0MPxPYcz-23" value="" style="group;direction=west;" vertex="1" connectable="0" parent="PbY_MZgcbPNX0MPxPYcz-22">
          <mxGeometry x="19.977179487179487" y="26.636363636363637" width="26.636239316239315" height="53.27272727272727" as="geometry" />
        </mxCell>
        <mxCell id="PbY_MZgcbPNX0MPxPYcz-24" value="" style="endArrow=none;html=1;rounded=0;" edge="1" parent="PbY_MZgcbPNX0MPxPYcz-23">
          <mxGeometry width="50" height="50" relative="1" as="geometry">
            <mxPoint x="13.318119658119658" y="53.27272727272727" as="sourcePoint" />
            <mxPoint x="13.318119658119658" y="26.636363636363637" as="targetPoint" />
          </mxGeometry>
        </mxCell>
        <mxCell id="PbY_MZgcbPNX0MPxPYcz-25" value="" style="ellipse;whiteSpace=wrap;html=1;aspect=fixed;" vertex="1" parent="PbY_MZgcbPNX0MPxPYcz-23">
          <mxGeometry width="26.636239316239315" height="26.636239316239315" as="geometry" />
        </mxCell>
        <mxCell id="PbY_MZgcbPNX0MPxPYcz-26" value="Nombre" style="text;html=1;align=center;verticalAlign=middle;whiteSpace=wrap;rounded=0;fontSize=8;" vertex="1" parent="PbY_MZgcbPNX0MPxPYcz-22">
          <mxGeometry width="66.5905982905983" height="26.636363636363637" as="geometry" />
        </mxCell>
        <mxCell id="PbY_MZgcbPNX0MPxPYcz-27" value="" style="group" vertex="1" connectable="0" parent="PbY_MZgcbPNX0MPxPYcz-46">
          <mxGeometry x="133.1811965811966" width="66.5905982905983" height="79.9090909090909" as="geometry" />
        </mxCell>
        <mxCell id="PbY_MZgcbPNX0MPxPYcz-28" value="" style="group;direction=west;" vertex="1" connectable="0" parent="PbY_MZgcbPNX0MPxPYcz-27">
          <mxGeometry x="19.977179487179487" y="26.636363636363637" width="26.636239316239315" height="53.27272727272727" as="geometry" />
        </mxCell>
        <mxCell id="PbY_MZgcbPNX0MPxPYcz-29" value="" style="endArrow=none;html=1;rounded=0;" edge="1" parent="PbY_MZgcbPNX0MPxPYcz-28">
          <mxGeometry width="50" height="50" relative="1" as="geometry">
            <mxPoint x="13.318119658119658" y="53.27272727272727" as="sourcePoint" />
            <mxPoint x="13.318119658119658" y="26.636363636363637" as="targetPoint" />
          </mxGeometry>
        </mxCell>
        <mxCell id="PbY_MZgcbPNX0MPxPYcz-30" value="" style="ellipse;whiteSpace=wrap;html=1;aspect=fixed;" vertex="1" parent="PbY_MZgcbPNX0MPxPYcz-28">
          <mxGeometry width="26.636239316239315" height="26.636239316239315" as="geometry" />
        </mxCell>
        <mxCell id="PbY_MZgcbPNX0MPxPYcz-31" value="Dirección" style="text;html=1;align=center;verticalAlign=middle;whiteSpace=wrap;rounded=0;fontSize=8;" vertex="1" parent="PbY_MZgcbPNX0MPxPYcz-27">
          <mxGeometry width="66.5905982905983" height="26.636363636363637" as="geometry" />
        </mxCell>
        <mxCell id="PbY_MZgcbPNX0MPxPYcz-97" value="" style="group" vertex="1" connectable="0" parent="PbY_MZgcbPNX0MPxPYcz-47">
          <mxGeometry y="73.25" width="73.24965811965812" height="113.20454545454545" as="geometry" />
        </mxCell>
        <mxCell id="PbY_MZgcbPNX0MPxPYcz-33" value="" style="group" vertex="1" connectable="0" parent="PbY_MZgcbPNX0MPxPYcz-97">
          <mxGeometry width="73.24965811965812" height="53.27272727272727" as="geometry" />
        </mxCell>
        <mxCell id="PbY_MZgcbPNX0MPxPYcz-9" value="" style="group" vertex="1" connectable="0" parent="PbY_MZgcbPNX0MPxPYcz-33">
          <mxGeometry x="19.977179487179487" y="26.636363636363637" width="53.27247863247863" height="26.636363636363637" as="geometry" />
        </mxCell>
        <mxCell id="PbY_MZgcbPNX0MPxPYcz-7" value="" style="endArrow=none;html=1;rounded=0;exitX=1;exitY=0.5;exitDx=0;exitDy=0;" edge="1" parent="PbY_MZgcbPNX0MPxPYcz-9" source="PbY_MZgcbPNX0MPxPYcz-8">
          <mxGeometry width="50" height="50" relative="1" as="geometry">
            <mxPoint x="39.954358974358975" as="sourcePoint" />
            <mxPoint x="53.27247863247863" y="13.318181818181818" as="targetPoint" />
          </mxGeometry>
        </mxCell>
        <mxCell id="PbY_MZgcbPNX0MPxPYcz-8" value="" style="ellipse;whiteSpace=wrap;html=1;aspect=fixed;container=0;" vertex="1" parent="PbY_MZgcbPNX0MPxPYcz-9">
          <mxGeometry width="26.636239316239315" height="26.636239316239315" as="geometry" />
        </mxCell>
        <mxCell id="PbY_MZgcbPNX0MPxPYcz-32" value="Teléfono" style="text;html=1;align=center;verticalAlign=middle;whiteSpace=wrap;rounded=0;fontSize=8;" vertex="1" parent="PbY_MZgcbPNX0MPxPYcz-33">
          <mxGeometry width="66.5905982905983" height="26.636363636363637" as="geometry" />
        </mxCell>
        <mxCell id="PbY_MZgcbPNX0MPxPYcz-36" value="" style="group" vertex="1" connectable="0" parent="PbY_MZgcbPNX0MPxPYcz-97">
          <mxGeometry y="59.93181818181818" width="73.24965811965812" height="53.27272727272727" as="geometry" />
        </mxCell>
        <mxCell id="PbY_MZgcbPNX0MPxPYcz-37" value="" style="group" vertex="1" connectable="0" parent="PbY_MZgcbPNX0MPxPYcz-36">
          <mxGeometry x="19.977179487179487" y="26.636363636363637" width="53.27247863247863" height="26.636363636363637" as="geometry" />
        </mxCell>
        <mxCell id="PbY_MZgcbPNX0MPxPYcz-38" value="" style="endArrow=none;html=1;rounded=0;exitX=1;exitY=0.5;exitDx=0;exitDy=0;" edge="1" parent="PbY_MZgcbPNX0MPxPYcz-37" source="PbY_MZgcbPNX0MPxPYcz-39">
          <mxGeometry width="50" height="50" relative="1" as="geometry">
            <mxPoint x="39.954358974358975" as="sourcePoint" />
            <mxPoint x="53.27247863247863" y="13.318181818181818" as="targetPoint" />
          </mxGeometry>
        </mxCell>
        <mxCell id="PbY_MZgcbPNX0MPxPYcz-39" value="" style="ellipse;whiteSpace=wrap;html=1;aspect=fixed;container=0;" vertex="1" parent="PbY_MZgcbPNX0MPxPYcz-37">
          <mxGeometry width="26.636239316239315" height="26.636239316239315" as="geometry" />
        </mxCell>
        <mxCell id="PbY_MZgcbPNX0MPxPYcz-40" value="Edad" style="text;html=1;align=center;verticalAlign=middle;whiteSpace=wrap;rounded=0;fontSize=8;" vertex="1" parent="PbY_MZgcbPNX0MPxPYcz-36">
          <mxGeometry width="66.5905982905983" height="26.636363636363637" as="geometry" />
        </mxCell>
        <mxCell id="PbY_MZgcbPNX0MPxPYcz-49" value="" style="endArrow=none;html=1;rounded=0;entryX=0.487;entryY=1;entryDx=0;entryDy=0;entryPerimeter=0;" edge="1" parent="PbY_MZgcbPNX0MPxPYcz-102" source="PbY_MZgcbPNX0MPxPYcz-94" target="PbY_MZgcbPNX0MPxPYcz-2">
          <mxGeometry width="50" height="50" relative="1" as="geometry">
            <mxPoint x="419.52076923076925" y="253.04545454545453" as="sourcePoint" />
            <mxPoint x="512.7476068376069" y="213.0909090909091" as="targetPoint" />
          </mxGeometry>
        </mxCell>
        <mxCell id="PbY_MZgcbPNX0MPxPYcz-55" value="" style="endArrow=none;html=1;rounded=0;entryX=1;entryY=0.5;entryDx=0;entryDy=0;exitX=0.5;exitY=0;exitDx=0;exitDy=0;" edge="1" parent="PbY_MZgcbPNX0MPxPYcz-102" source="PbY_MZgcbPNX0MPxPYcz-51" target="PbY_MZgcbPNX0MPxPYcz-53">
          <mxGeometry width="50" height="50" relative="1" as="geometry">
            <mxPoint x="446.15700854700856" y="332.95454545454544" as="sourcePoint" />
            <mxPoint x="486.1113675213675" y="319.6363636363636" as="targetPoint" />
          </mxGeometry>
        </mxCell>
        <mxCell id="PbY_MZgcbPNX0MPxPYcz-56" value="" style="endArrow=none;html=1;rounded=0;entryX=0.5;entryY=0;entryDx=0;entryDy=0;exitX=0.5;exitY=0;exitDx=0;exitDy=0;" edge="1" parent="PbY_MZgcbPNX0MPxPYcz-102" source="PbY_MZgcbPNX0MPxPYcz-52" target="PbY_MZgcbPNX0MPxPYcz-53">
          <mxGeometry width="50" height="50" relative="1" as="geometry">
            <mxPoint x="432.8388888888889" y="359.59090909090907" as="sourcePoint" />
            <mxPoint x="432.8388888888889" y="319.6363636363636" as="targetPoint" />
          </mxGeometry>
        </mxCell>
        <mxCell id="PbY_MZgcbPNX0MPxPYcz-57" value="" style="endArrow=none;html=1;rounded=0;entryX=0.5;entryY=1;entryDx=0;entryDy=0;exitX=0.5;exitY=0;exitDx=0;exitDy=0;" edge="1" parent="PbY_MZgcbPNX0MPxPYcz-102" source="PbY_MZgcbPNX0MPxPYcz-50" target="PbY_MZgcbPNX0MPxPYcz-53">
          <mxGeometry width="50" height="50" relative="1" as="geometry">
            <mxPoint x="446.15700854700856" y="386.2272727272727" as="sourcePoint" />
            <mxPoint x="512.7476068376069" y="319.6363636363636" as="targetPoint" />
          </mxGeometry>
        </mxCell>
        <mxCell id="PbY_MZgcbPNX0MPxPYcz-98" value="" style="group" vertex="1" connectable="0" parent="PbY_MZgcbPNX0MPxPYcz-102">
          <mxGeometry x="352.93017094017097" y="213.0909090909091" width="133.1811965811966" height="93.22727272727272" as="geometry" />
        </mxCell>
        <mxCell id="PbY_MZgcbPNX0MPxPYcz-53" value="" style="triangle;whiteSpace=wrap;html=1;direction=south;" vertex="1" parent="PbY_MZgcbPNX0MPxPYcz-98">
          <mxGeometry y="39.95454545454545" width="133.1811965811966" height="53.27272727272727" as="geometry" />
        </mxCell>
        <mxCell id="PbY_MZgcbPNX0MPxPYcz-54" value="pueden ser" style="text;html=1;align=center;verticalAlign=middle;whiteSpace=wrap;rounded=0;fontSize=8;" vertex="1" parent="PbY_MZgcbPNX0MPxPYcz-98">
          <mxGeometry x="26.636239316239315" y="39.95454545454545" width="79.90871794871795" height="39.95454545454545" as="geometry" />
        </mxCell>
        <mxCell id="PbY_MZgcbPNX0MPxPYcz-95" value="" style="endArrow=none;html=1;rounded=0;entryX=0.487;entryY=1;entryDx=0;entryDy=0;entryPerimeter=0;" edge="1" parent="PbY_MZgcbPNX0MPxPYcz-98" target="PbY_MZgcbPNX0MPxPYcz-94">
          <mxGeometry width="50" height="50" relative="1" as="geometry">
            <mxPoint x="66.5905982905983" y="39.95454545454545" as="sourcePoint" />
            <mxPoint x="66.5905982905983" y="-26.636363636363637" as="targetPoint" />
          </mxGeometry>
        </mxCell>
        <mxCell id="PbY_MZgcbPNX0MPxPYcz-94" value="" style="ellipse;whiteSpace=wrap;html=1;aspect=fixed;" vertex="1" parent="PbY_MZgcbPNX0MPxPYcz-98">
          <mxGeometry x="53.27247863247863" width="26.636239316239315" height="26.636239316239315" as="geometry" />
        </mxCell>
        <mxCell id="PbY_MZgcbPNX0MPxPYcz-99" value="" style="group" vertex="1" connectable="0" parent="PbY_MZgcbPNX0MPxPYcz-102">
          <mxGeometry x="605.9744444444444" y="332.95454545454544" width="173.13555555555556" height="159.8181818181818" as="geometry" />
        </mxCell>
        <mxCell id="PbY_MZgcbPNX0MPxPYcz-52" value="Desempleado" style="rounded=0;whiteSpace=wrap;html=1;fontSize=8;" vertex="1" parent="PbY_MZgcbPNX0MPxPYcz-99">
          <mxGeometry y="79.9090909090909" width="159.8174358974359" height="79.9090909090909" as="geometry" />
        </mxCell>
        <mxCell id="PbY_MZgcbPNX0MPxPYcz-58" value="" style="group" vertex="1" connectable="0" parent="PbY_MZgcbPNX0MPxPYcz-99">
          <mxGeometry x="106.54495726495726" width="66.5905982905983" height="79.9090909090909" as="geometry" />
        </mxCell>
        <mxCell id="PbY_MZgcbPNX0MPxPYcz-59" value="" style="group;direction=west;" vertex="1" connectable="0" parent="PbY_MZgcbPNX0MPxPYcz-58">
          <mxGeometry x="19.977179487179487" y="26.636363636363637" width="26.636239316239315" height="53.27272727272727" as="geometry" />
        </mxCell>
        <mxCell id="PbY_MZgcbPNX0MPxPYcz-60" value="" style="endArrow=none;html=1;rounded=0;" edge="1" parent="PbY_MZgcbPNX0MPxPYcz-59">
          <mxGeometry width="50" height="50" relative="1" as="geometry">
            <mxPoint x="13.318119658119658" y="53.27272727272727" as="sourcePoint" />
            <mxPoint x="13.318119658119658" y="26.636363636363637" as="targetPoint" />
          </mxGeometry>
        </mxCell>
        <mxCell id="PbY_MZgcbPNX0MPxPYcz-61" value="" style="ellipse;whiteSpace=wrap;html=1;aspect=fixed;" vertex="1" parent="PbY_MZgcbPNX0MPxPYcz-59">
          <mxGeometry width="26.636239316239315" height="26.636239316239315" as="geometry" />
        </mxCell>
        <mxCell id="PbY_MZgcbPNX0MPxPYcz-62" value="Fecha de paro" style="text;html=1;align=center;verticalAlign=middle;whiteSpace=wrap;rounded=0;fontSize=8;" vertex="1" parent="PbY_MZgcbPNX0MPxPYcz-58">
          <mxGeometry width="66.5905982905983" height="26.636363636363637" as="geometry" />
        </mxCell>
        <mxCell id="PbY_MZgcbPNX0MPxPYcz-100" value="" style="group" vertex="1" connectable="0" parent="PbY_MZgcbPNX0MPxPYcz-102">
          <mxGeometry x="326.2939316239316" y="332.95454545454544" width="186.4536752136752" height="159.8181818181818" as="geometry" />
        </mxCell>
        <mxCell id="PbY_MZgcbPNX0MPxPYcz-51" value="Estudiante" style="rounded=0;whiteSpace=wrap;html=1;fontSize=8;" vertex="1" parent="PbY_MZgcbPNX0MPxPYcz-100">
          <mxGeometry x="13.318119658119658" y="79.9090909090909" width="159.8174358974359" height="79.9090909090909" as="geometry" />
        </mxCell>
        <mxCell id="PbY_MZgcbPNX0MPxPYcz-84" value="" style="group" vertex="1" connectable="0" parent="PbY_MZgcbPNX0MPxPYcz-100">
          <mxGeometry width="66.5905982905983" height="79.9090909090909" as="geometry" />
        </mxCell>
        <mxCell id="PbY_MZgcbPNX0MPxPYcz-85" value="" style="group;direction=west;" vertex="1" connectable="0" parent="PbY_MZgcbPNX0MPxPYcz-84">
          <mxGeometry x="19.977179487179487" y="26.636363636363637" width="26.636239316239315" height="53.27272727272727" as="geometry" />
        </mxCell>
        <mxCell id="PbY_MZgcbPNX0MPxPYcz-86" value="" style="endArrow=none;html=1;rounded=0;" edge="1" parent="PbY_MZgcbPNX0MPxPYcz-85">
          <mxGeometry width="50" height="50" relative="1" as="geometry">
            <mxPoint x="13.318119658119658" y="53.27272727272727" as="sourcePoint" />
            <mxPoint x="13.318119658119658" y="26.636363636363637" as="targetPoint" />
          </mxGeometry>
        </mxCell>
        <mxCell id="PbY_MZgcbPNX0MPxPYcz-87" value="" style="ellipse;whiteSpace=wrap;html=1;aspect=fixed;fillColor=light-dark(#FFFFFF,#33FFFF);" vertex="1" parent="PbY_MZgcbPNX0MPxPYcz-85">
          <mxGeometry width="26.636239316239315" height="26.636239316239315" as="geometry" />
        </mxCell>
        <mxCell id="PbY_MZgcbPNX0MPxPYcz-88" value="No. Matricula" style="text;html=1;align=center;verticalAlign=middle;whiteSpace=wrap;rounded=0;fontSize=8;" vertex="1" parent="PbY_MZgcbPNX0MPxPYcz-84">
          <mxGeometry width="66.5905982905983" height="26.636363636363637" as="geometry" />
        </mxCell>
        <mxCell id="PbY_MZgcbPNX0MPxPYcz-89" value="" style="group" vertex="1" connectable="0" parent="PbY_MZgcbPNX0MPxPYcz-100">
          <mxGeometry x="119.86307692307692" width="66.5905982905983" height="79.9090909090909" as="geometry" />
        </mxCell>
        <mxCell id="PbY_MZgcbPNX0MPxPYcz-90" value="" style="group;direction=west;" vertex="1" connectable="0" parent="PbY_MZgcbPNX0MPxPYcz-89">
          <mxGeometry x="19.977179487179487" y="26.636363636363637" width="26.636239316239315" height="53.27272727272727" as="geometry" />
        </mxCell>
        <mxCell id="PbY_MZgcbPNX0MPxPYcz-91" value="" style="endArrow=none;html=1;rounded=0;" edge="1" parent="PbY_MZgcbPNX0MPxPYcz-90">
          <mxGeometry width="50" height="50" relative="1" as="geometry">
            <mxPoint x="13.318119658119658" y="53.27272727272727" as="sourcePoint" />
            <mxPoint x="13.318119658119658" y="26.636363636363637" as="targetPoint" />
          </mxGeometry>
        </mxCell>
        <mxCell id="PbY_MZgcbPNX0MPxPYcz-92" value="" style="ellipse;whiteSpace=wrap;html=1;aspect=fixed;" vertex="1" parent="PbY_MZgcbPNX0MPxPYcz-90">
          <mxGeometry width="26.636239316239315" height="26.636239316239315" as="geometry" />
        </mxCell>
        <mxCell id="PbY_MZgcbPNX0MPxPYcz-93" value="Nombre de CEI" style="text;html=1;align=center;verticalAlign=middle;whiteSpace=wrap;rounded=0;fontSize=8;" vertex="1" parent="PbY_MZgcbPNX0MPxPYcz-89">
          <mxGeometry width="66.5905982905983" height="26.636363636363637" as="geometry" />
        </mxCell>
        <mxCell id="PbY_MZgcbPNX0MPxPYcz-101" value="" style="group" vertex="1" connectable="0" parent="PbY_MZgcbPNX0MPxPYcz-102">
          <mxGeometry y="332.95454545454544" width="233.067094017094" height="159.8181818181818" as="geometry" />
        </mxCell>
        <mxCell id="PbY_MZgcbPNX0MPxPYcz-41" value="" style="group" vertex="1" connectable="0" parent="PbY_MZgcbPNX0MPxPYcz-101">
          <mxGeometry x="59.93153846153846" width="66.5905982905983" height="79.9090909090909" as="geometry" />
        </mxCell>
        <mxCell id="PbY_MZgcbPNX0MPxPYcz-42" value="" style="group;direction=west;" vertex="1" connectable="0" parent="PbY_MZgcbPNX0MPxPYcz-41">
          <mxGeometry x="19.977179487179487" y="26.636363636363637" width="26.636239316239315" height="53.27272727272727" as="geometry" />
        </mxCell>
        <mxCell id="PbY_MZgcbPNX0MPxPYcz-43" value="" style="endArrow=none;html=1;rounded=0;" edge="1" parent="PbY_MZgcbPNX0MPxPYcz-42">
          <mxGeometry width="50" height="50" relative="1" as="geometry">
            <mxPoint x="13.318119658119658" y="53.27272727272727" as="sourcePoint" />
            <mxPoint x="13.318119658119658" y="26.636363636363637" as="targetPoint" />
          </mxGeometry>
        </mxCell>
        <mxCell id="PbY_MZgcbPNX0MPxPYcz-44" value="" style="ellipse;whiteSpace=wrap;html=1;aspect=fixed;fillColor=light-dark(#FFFFFF,#33FFFF);" vertex="1" parent="PbY_MZgcbPNX0MPxPYcz-42">
          <mxGeometry width="26.636239316239315" height="26.636239316239315" as="geometry" />
        </mxCell>
        <mxCell id="PbY_MZgcbPNX0MPxPYcz-45" value="Nro.&amp;nbsp; Seg. Social" style="text;html=1;align=center;verticalAlign=middle;whiteSpace=wrap;rounded=0;fontSize=8;" vertex="1" parent="PbY_MZgcbPNX0MPxPYcz-41">
          <mxGeometry width="66.5905982905983" height="26.636363636363637" as="geometry" />
        </mxCell>
        <mxCell id="PbY_MZgcbPNX0MPxPYcz-50" value="Empleados" style="rounded=0;whiteSpace=wrap;html=1;fontSize=8;" vertex="1" parent="PbY_MZgcbPNX0MPxPYcz-101">
          <mxGeometry x="73.24965811965812" y="79.9090909090909" width="159.8174358974359" height="79.9090909090909" as="geometry" />
        </mxCell>
        <mxCell id="PbY_MZgcbPNX0MPxPYcz-63" value="" style="group" vertex="1" connectable="0" parent="PbY_MZgcbPNX0MPxPYcz-101">
          <mxGeometry y="66.5909090909091" width="73.24965811965812" height="53.27272727272727" as="geometry" />
        </mxCell>
        <mxCell id="PbY_MZgcbPNX0MPxPYcz-64" value="" style="group" vertex="1" connectable="0" parent="PbY_MZgcbPNX0MPxPYcz-63">
          <mxGeometry x="19.977179487179487" y="26.636363636363637" width="53.27247863247863" height="26.636363636363637" as="geometry" />
        </mxCell>
        <mxCell id="PbY_MZgcbPNX0MPxPYcz-65" value="" style="endArrow=none;html=1;rounded=0;exitX=1;exitY=0.5;exitDx=0;exitDy=0;" edge="1" parent="PbY_MZgcbPNX0MPxPYcz-64" source="PbY_MZgcbPNX0MPxPYcz-66">
          <mxGeometry width="50" height="50" relative="1" as="geometry">
            <mxPoint x="39.954358974358975" as="sourcePoint" />
            <mxPoint x="53.27247863247863" y="13.318181818181818" as="targetPoint" />
          </mxGeometry>
        </mxCell>
        <mxCell id="PbY_MZgcbPNX0MPxPYcz-66" value="" style="ellipse;whiteSpace=wrap;html=1;aspect=fixed;container=0;" vertex="1" parent="PbY_MZgcbPNX0MPxPYcz-64">
          <mxGeometry width="26.636239316239315" height="26.636239316239315" as="geometry" />
        </mxCell>
        <mxCell id="PbY_MZgcbPNX0MPxPYcz-67" value="Salario" style="text;html=1;align=center;verticalAlign=middle;whiteSpace=wrap;rounded=0;fontSize=8;" vertex="1" parent="PbY_MZgcbPNX0MPxPYcz-63">
          <mxGeometry width="66.5905982905983" height="26.636363636363637" as="geometry" />
        </mxCell>
        <mxCell id="PbY_MZgcbPNX0MPxPYcz-73" value="" style="group" vertex="1" connectable="0" parent="PbY_MZgcbPNX0MPxPYcz-101">
          <mxGeometry x="113.20401709401709" width="66.5905982905983" height="79.9090909090909" as="geometry" />
        </mxCell>
        <mxCell id="PbY_MZgcbPNX0MPxPYcz-74" value="" style="group;direction=west;" vertex="1" connectable="0" parent="PbY_MZgcbPNX0MPxPYcz-73">
          <mxGeometry x="19.977179487179487" y="26.636363636363637" width="26.636239316239315" height="53.27272727272727" as="geometry" />
        </mxCell>
        <mxCell id="PbY_MZgcbPNX0MPxPYcz-75" value="" style="endArrow=none;html=1;rounded=0;" edge="1" parent="PbY_MZgcbPNX0MPxPYcz-74">
          <mxGeometry width="50" height="50" relative="1" as="geometry">
            <mxPoint x="13.318119658119658" y="53.27272727272727" as="sourcePoint" />
            <mxPoint x="13.318119658119658" y="26.636363636363637" as="targetPoint" />
          </mxGeometry>
        </mxCell>
        <mxCell id="PbY_MZgcbPNX0MPxPYcz-76" value="" style="ellipse;whiteSpace=wrap;html=1;aspect=fixed;" vertex="1" parent="PbY_MZgcbPNX0MPxPYcz-74">
          <mxGeometry width="26.636239316239315" height="26.636239316239315" as="geometry" />
        </mxCell>
        <mxCell id="PbY_MZgcbPNX0MPxPYcz-77" value="Empresa" style="text;html=1;align=center;verticalAlign=middle;whiteSpace=wrap;rounded=0;fontSize=8;" vertex="1" parent="PbY_MZgcbPNX0MPxPYcz-73">
          <mxGeometry width="66.5905982905983" height="26.636363636363637" as="geometry" />
        </mxCell>
        <mxCell id="PbY_MZgcbPNX0MPxPYcz-103" value="&lt;div align=&quot;left&quot;&gt;El desempleado no se solapa con el empleado &lt;/div&gt;" style="shape=note;whiteSpace=wrap;html=1;backgroundOutline=1;darkOpacity=0.05;size=11;align=left;fontSize=6;" vertex="1" parent="PbY_MZgcbPNX0MPxPYcz-104">
          <mxGeometry x="645.9288034188035" y="532.7272727272727" width="93.2268376068376" height="53.27272727272727" as="geometry" />
        </mxCell>
        <mxCell id="PbY_MZgcbPNX0MPxPYcz-1" value="" style="shape=image;verticalLabelPosition=bottom;labelBackgroundColor=default;verticalAlign=top;aspect=fixed;imageAspect=0;image=data:image/png,iVBORw0KGgoAAAANSUhEUgAAAxsAAAIJCAYAAADNtyDtAAAgAElEQVR4Xuy9z64dx5WnG34Oc1CuA4ggUTXoegARMAECkouQ2EAPbhnlwbmUJg1BhH1ETQo1aPRE1LFBoVATWfcMXLDvoIGmhFNlAgQogHqA2wMXKFDAsT2gnsM3/2dkxFoRK3Nn7p17708emSczMuJbK1asX/zbP/hL8Z/jPwhAAAIQgAAEIAABCEAAAjMT+AFiY2aiFAcBCEAAAhCAAAQgAAEIVAQQGzgCBCAAAQhAAAIQgAAEILAIAcTGIlgpFAIQgAAEIAABCEAAAhBAbOADEIAABCAAAQhAAAIQgMAiBBAbi2ClUAhAAAIQgAAEIAABCEAAsYEPQAACEIAABCAAAQhAAAKLEEBsLIKVQiEAAQhAAAIQgAAEIAABxAY+AAEIQAACEIAABCAAAQgsQgCxsQhWCoUABCAAAQhAAAIQgAAEEBv4AAQgAAEIQAACEIAABCCwCAHExiJYKRQCEIAABCAAAQhAAAIQQGzgAxCAAAQgAAEIQAACEIDAIgQQG4tgpVAIQAACEIAABCAAAQhAALGBD0AAAhCAAAQgAAEIQAACixBAbCyClUIhAAEIQAACEIAABCAAAcQGPgABCEAAAhCAAAQgAAEILEIAsbEIVgqFAAQgAAEIQAACEIAABBAb+AAEIAABCEAAAhCAAAQgsAgBxMYiWCkUAhCAAAQgAAEIQAACEEBs4AMQgAAEIAABCEAAAhCAwCIEEBuLYKVQCEAAAhCAAAQgAAEIQACxgQ9AAAIQgAAEIAABCEAAAosQmE1s/O7tH7ifPlXq+Fe/cC//dO5uFH/unnvrt+4vv/+HRRolFvpvP3E/+Nnviz/9yP3iD390539j+fTv3E9+8FNXvfXRS/fHR2ULNvvPxulbd/ajm+6Xf5a+FdffVqZe728f/rW7+emfvAfedr/9y3+4+a0TtGvbPrCZ6bbz9iQ/3U7V+AoEIAABCEAAAhAYS2DLYsNLNj0BMrbSU573E+q3f/MX9x//aCjlP8/cX//tL12Vhs+UGNuEQUps1PX222ArU26v/u4YUWZgWT7i86xbsZCoMdZnhY9N8tMVtoMqQQACEIAABCAAgZLAAmIjnUCystGuAKU4KaLMT9al1aKxyXs3i+6JlwUEVtvVukT6r37kfvTnP1Uiziz8ttJfPe4zicvR1d7aysb8q3aj28oLEIAABCAAAQgcPIGti42DJ5ppYL+SMEFsFGVL79vKjCvWvResMmn/vpnt+kT+7d+8dDf+udkmtqukXmzMCsTGZpBHvI3YGAGLRyEAAQhAAAIQmEhg62JDXdmIttiE5ySUZHWQKMfbj7qZ88SMcbiVqD+fkUjIhPo6w9YwmzDQt5tJQsBWZughemLdb+WZcZtTx6su879050T8b/S8o21rgf3+79+050yGdYz5+H7zF3f+h+H5lM4/JHuWyMQVJI9laPO2ntW//507a878VG+0z3orSuU/D1Z3RvhptA3N8u3yg8H3u9YEwk/aYreulaiJUY/XIAABCEAAAhDYGoEFxEZY9+Hef1FsaMlPWVSXACnnGLpkz0tUB1VoklExidPORrR1lsVGfKDa/2D6rIPtjIRhG5WXGNrKnCI25ju30TFr6+0l9/L5k7SIcKJY8VZ+Or/InX9p2ui88zk+KkUgDGj6giPly2q39jiP8tOyQOld5UMt+6zY0PpSU+6qVqO2Fiv5EAQgAAEIQAACEwisQGz0yeDgxqcuGW2TqWHSGN4O1SfcfoJcJk2/dT8tb1YSkjj5MG75nZ84d1neWCWIDe1Mg/Gsg00YZBJkbdtT5AApsaCvIvRc5hIb/bd6YaGsrIgiJLaDtvqSWtmoUvP2VjHvO70vJbZRlc8//Dv3R/8GNUkYDBL5VjApt3BJdUiWqQgwUUT0z8orX/qqndyX/C18c/nFhIjFKxCAAAQgAAEI7BWBBcTGyAPi2vYVD2OdoKb20xv22gtJXP5sgpCQWba5JLZT2bY8pcRGzNdW5owrG8LMePJq4O55JVkeHGwXVnWSQtG+jWq4NUsSuRk/Un01tzLhnCyOhO+l/FQLLdHqSyAGRP6a2MgIruZ2NrZT7VWcp7IQgAAEIACBnRE4ELFhOOwaJXEGgeLsM+qlBfPiRT7gHVtf2kblrUSoKxtjzlhscGZjpNhIXs3bNN5PXsOVlb972Nzg5bV70srGYPvPSLGR3B51SGLDdk4JsbGzmM2HIQABCEAAAntFYFViI53ApMRB4mBxa46U2FBXIlJiI/HjenOubCjnASznHHKeuJ3bqDL7/9tKDoSAz/0X7sanv6x+WFEWJNtY2VDO0CS3PA39Y5aVjdwFBNqq26iVjURfUs7Z5PyMv0MAAhCAAAQgcLwEdi82vNWD6DanKklyzQ+/pVci9DMb/+RulL8Y/n/iXxDXz2zcdN/+j3Lr1ogzG97Md2pLkW3Lk3Yblby6YStTcHKvztKtTLP8anpi29lgNSj4jZB4NSRYtZHq7q8+SAfEx6xsaLeciQfzl13Z0H/or/aT//3fml+3nyg2wpu/5L7kb+3zbCHZ4XjjKS2HAAQgAAEIQCAgsIDYEBhL14d6SVvydqds0th8L7efXhAbxaam4gD5T6tZ8/C/OvmWt5SktwUZz6xIrii1NZjNlg5vJ+uTnA1PnA3JzaIbu1J2a5mWrIb2jG5AyqyYZP1GvphAEzn9Vb1Sw5cVGyk/LWuTvd5ZXNkQbN8yy5yj8kWo33dnEadGv+IxCEAAAhCAAAT2g8AqxEaFKvu7FePOWLT4s4mYi5Muy+9siALJcCWoTRhoKxtlq+JtLrYyNYcUkk5DO2zubdjeJrSnLntYL3GLnSRI/q/fFqthhXycKDbC76Z+Z+Pt3/zWuZ+VYnVpsVETyf7uxaiVjcCXyv+rbGXrbS3cQsXKhq0r8BQEIAABCEDgSAnMJjas/MTf2bC+zHNHRWDy9rCjokRjIQABCEAAAhCAwHoJbFlsWGa61wuLmm2TAL6yTdp8CwIQgAAEIAABCCxBYGtiI9x2xNWZS5jzgMpke84BGZOmQAACEIAABCBwrAR2IjY4SHqs7mZvN1uo7Kx4EgIQgAAEIAABCKyVwNbExloBUC8IQAACEIAABCAAAQhAYBkCiI1luFIqBCAAAQhAAAIQgAAEjp4AYuPoXQAAEIAABCAAAQhAAAIQWIYAYmMZrpQKAQhAAAIQgAAEIACBoyeA2Dh6FwAABCAAAQhAAAIQgAAEliGA2FiGK6VCAAIQgAAEIAABCEDg6AkgNo7eBQAAAQhAAAIQgAAEIACBZQggNpbhSqkQgAAEIAABCEAAAhA4egKIjaN3AQBAAAIQgAAEIAABCEBgGQKIjWW4UioEIAABCEAAAhCAAASOngBi4+hdAAAQgAAEIAABCEAAAhBYhgBiYxmulAoBCEAAAhCAAAQgAIGjJ4DYOHoXAAAEIAABCEAAAhCAAASWIYDYWIYrpUIAAhCAAAQgAAEIQODoCSA2jt4FAAABCEAAAhCAAAQgAIFlCCA2luFKqRCAAAQgAAEIQAACEDh6AoiNo3cBAEAAAhCAAAQgAAEIQGAZAoiNZbhSKgQgAAEIQAACEIAABI6eAGLj6F0AABCAAAQgAAEIQAACEFiGAGJjGa6UCgEIQAACEIAABCAAgaMngNg4ehcAAAQgAAEIQAACEIAABJYhgNhYhiulQgACEIAABCAAAQhA4OgJIDaO3gUAAAEIQAACEIAABCAAgWUIIDaW4UqpEIAABCAAAQhAAAIQOHoCiI2jdwEAQAACEIAABCAAAQhAYBkCiI1luFIqBCAAAQhAAAIQgAAEjp4AYuPoXQAAEIAABCAAAQhAAAIQWIYAYmMZrpQKAQhAAAIQgAAEIACBoyeA2Dh6FwAABCAAAQhAAAIQgAAEliGA2FiGK6VCAAIQgAAEIAABCEDg6AkgNhQX+PbhX7ub/+u/upd/Onc3jt5NAAABj8C//cT94GfO/fYv/+H+YS/B/M795Af/5G784Y/u/G8WakDJ6J9vHGH8KNn+1Lnf/MX9xz8uxHaWYvelnrM0lkIgAAEI7JTAMmKjSkZ+3zXs7dUPPLENfvf2D9xPn769xwnVTv0q//HAR/wXfH+p7eD/9UfuF0qSGD/bvocd8waxP1EJ8U+dagd7STt6svG9JePS0caP/zxzf/23v3Tuo5fuj49WPE0zRz2bMv701m/dX36/jOyu/UiPeTvqQXwWAhCAwCgCM4uNeraolxmDFHKvEvejTRZGuc/0h+uE9U9iAT/qEpVv3dmPbrpf/ll6LBQQqWcZrKdbKn4TsZGnOT1+NH7sfrGfqyJzJPF5vJs/MUc9W7HxV8vZqp1AWVIYuzlYbG6RPSxhz/vqHhKnyvtLYEax0SZ7UmJX/u3M/d2f9mfbxfRkYX+dYZs1tyWsSjBvV0UGM4oE/m3Zz2a7bdVmwndWvbKx5368L4nrvtRzgnuPfgUWo5HVL+x5X53Yal6DwBQCs4mNdqa6n5WeUp31vIPYWNYWtoRVC+bNCtpgRpHAv6zF+tJttttWbSZ8B7ExAZrxlX1JXPelnkbsGz0Gi4n4GHMmguO1IyQwk9hoVzVse+OrRP7bX7hf3Pil+2WzH78TKe3SdGCM4TKytl3L8n1lu02w79YqNsRzAuGyunA+YSjKhPYUZfz2v/1v91P/kHrD5kZ4BkZMniztrL/77Ue/cDc+/eVg+1tVv5/9P9X+a3+z01x2sCWs2xAb7UHRl+7GP4dbtgJ/UnzTBfbW/fv/KNsM837bljm8sEDg0/pIYdNvC5sONqoFPq5tZctNGHS2++iG++Wnw02TWb+u+nXQ3mz/sPiyHL2lNr791tvu909/74a+PPUb0ntvu7ff+n3xjWE7tTNFXT2Uc0zpM0x1u/NtSfuYyGkQZ7RtisFKdpe4xjHF3k+Ksx6mcUAZsUWOWj3TZ0vSXJq4La2w/lmqW1MHV59rscRxMU6a2Oix3beD7JO+r0zsF5k+XbfrRrS1Oh537fHZHCNL05gYyn27uhgj21eN/aVdHfkzW32PMP8+qibPJDakmWadYx/gwgFQLicKQGWgePh37o/+obym8+cSJfHAnZCsW8RGOxANBvpolkgakIZs4n25XqDyE9kRYsPWTk/kdAPmMEj2bRNss4EdNhEb8j7mqbNMEoPCPtJWreLf/voP54ODr5IPqP69AS/zQOoNovHZl+GA9ru3/9r9f4/8G5lskwZ9AuaX13L0+rSpvdb+EQzGltUJaU+9lyTESfz4b0grurL9pa2k41bo5NXjmLutb3kxyDCzLfY5ia/of85J7288DkhDjHhoWxflyYPsWS6C71rGkhFxPLalcYx0clxL2VFiYRtHQkPk+/RYsVFNafiiTojP5hjZspEmibwJgnw/0sccc39BbBxVwn3Mjd2p2IgOvWkJhBacB5bLB7hiyKtnlqPbQ5qgcaO/VSQvNjKBpli5qWehc/XK1Mk/KGoepKztVJ5T7JBnUhok197aaOoBcWlrVDRLqJ0Lkg+TpwXoCP6J5MYfqMcd6rTxMg+kWoJkSc47u6RvmlIHYdM3wvbm2m/15dg49npO/UYu2TCuWA1WQLQyE2I6mGjJJ0kBqylJdVNEJLbVsmLGaj/ZYBxI2/zb/ga1bJv72W9dkGhtklbu4m9PWtkws1F8Wmr3CJs10bu+uMMbL4PpM2Wc7Z8aLTa0MdsbH80x0sgw348yK+/CLWXiBOUxZ6C0/WgI7FBsxAOxmoA25piWNMYzePIdSMVzXqKbT6y9mSPRXfr26TN4qQEtsUUmt41K2+7T1rNr567FRu761ICB1674dpYNVzaEgSHvA7L9TO91PpNLtusHzQOpljiYBHsrAieKDUsCJ4hRS/+w9NmwG6p2CJMNc3+JvqAmVVYfiJ8bn8B0W0JaH1ZWF/RRTVlJbV9I2TVcUVafjdulMdpkHOh9SW5tFzdMvprhIviylERHSat50ijuj3Y2Wlyp//1b/2riTMyY3vdKG8iCe3Ox0a6WBeNsN8nX2j/2OzPDbD9S+uqY/nI0qSYNPXYC84oNJbBYkwDzQNEmX4PfX2i+krrzPPHbDtXb3rvZZGFsgjL4tjczP2JwbpOK7IyYuZ2biw3VZpm75/OzRqVBpGAubNepjLcNsaHtw3XOF8Ip35nKaxGxofpwev+wajvBl83t1fqH2ZfjUG4WG5O/oQtF8dvqd4Q98uHVt8nkWKpH4KuG34IYJmFenVIrVmG9RsQzzT5jxoGh1fX+WT9nibuxH6lcpFXcrk/V/P5Le8W3z38DsWFnM4PYmNwvGoZany6j9cgzG/FuhOliw87QG1f+LOUXypgzpr8cewZK+4+GwExio+34tkNO6Rmt3Gx3vwVHPKycGlRNs1m17bNiw7hdKPKkdjBqVxdGDM5msWFu52ZiQ14Sts3UTxcbmv2XFxu1T+QPmuZmbEf7beuPhlk79c78KMGR935b7GIVG5P8w9w/8jHaLDbM/SX85gix0bYrexHF9JUNbbuPul1JQxjuhzfM1OZXDMaubOTHAan6+bjdvDXF5tE5gdj+lc8Xl3qIl5+0Fd5AbFj6ZzOCKatu41c2Nv6BxrBP71hs2BkOPSzuR9NXNhb93ZR8aOQJCGydwGxioztQq/3A0b/9zv3uH//Blb+zmksCbIe8lcPlyRk8OcGaNmjZDtNKZQ9ndZQ6CQFaSyTjIGht52ZiQ7bj8mKjOxcyy9W32kpJyNA+sKRnbKf4rdJnRvhIJFSVZMsyEGv7jsN/n+ofpv5hCJVaPaf3l/CjWgwQfMp8DipzZuPP+vZTPYEREswMv+FKmh5PIgGuiKpoq9cM44AeW/8U3M4lPDlFbESiP4x18dk/EbPybUkURv3ReBGKfnZuhNhQDlIbul70SLiSIccZKRZb4/OIGGlmKE8u9FvQMhMDQi4kTlhNAco7ENgzAvOJjW7wqAmEM11/8paw9dmnfhk8nv39J3fjD/XNOW0S0YsS7/yEaftOsQtVmGH8p7/pr0E0zZC1M11BUKnq95//0/2lvC2rGli+df+zvC6vIhMP3O0g07XHX34WD0z3s+v+krDPrFv6T7ZzM7GxuR1ys5e5A7j+KsOGKxu11zZXMcp+GCUDyp7e3MrGFL+Nbsfyt0AJN5ZFs5Hayoa39bHfLmLZRlXv5I581quLyT8M/cPmy3pCWaSekV0HMar4P1O/Eb032JoW3MxVXiMdnQvz/a5ug5qQSPFG+LfyfT+WaaKrI1aW8c83+l8sFwSDxEdkJvplG5/D29DKlUJpT79tHJDHWvlbURy2iI0sF2Vl41PhlIN4Pa41jvtx0spmxDaqhKiY1C8MfboTn+H5wUEc9sZLQ3w2x8juBqjwyuiSWZ9nWPqR1lfN/YXbqPYsZaa6UwnMKjaqSoj7PK2DTFmAsu9WvKaub/aPPvqt+6//66eJGzL6Z/ukysc2po7ee8q+1ujK2IGFwgE2bvPbv2l+90HZu90NZyWXS+d+Itzbnm/nZmKjT4zG20GuW11OdGVryMD3M+XK3mGHSCXPPYPfup8WyY/flvAOfslOv3XuZ8MDlymhGu4XHuO34bulj/30/61/s6b7/Q0tiZK2bgwS4ybp/Y1zP/2Zd3OOEFm6Wco/3HD/NPgdljhxzLfXmyjovmW9PMKwbTPsn1Uc+Tt3VhySdcFFC/n+oqS31fa6wG/+9sz94Gdu+DsCQl2q39IJf28gsMtg4kWKN4bfT0muFkd+ULRFmJWV+ETldn4W/25NuPKSntCxjQNpwRH8VTg3Ybn6diAdBlx0sSH+NoowKZCL4/IKgIXNGLER3g447H/j+8W0Pl360n+4nwS/vzEmPvdXLLeWF2Nk9cc8wzH+3tpRnPDz3DDuh209DLFMdnb+FQJ7QWB+sbEXzd6HSk6dqd+Htq2pjrZtX2uqMXWBAATWSEDfrhZuI1pj7ddZJ+LzOu1CrSAwjgBiYxyvLT6N2NgObAaz7XDmKxA4cAJjLvs4cBTzNY/4PB9LSoLA7gggNnbHPvNlxMZ2TMNgth3OfAUCh08g3DbYt5htMtOsT3yexo23ILAuAoiNddljUJvBQfMV13O/q1aLum//x1/cf/zjfreE2kMAAishoFwespLa7VE1iM97ZCyqCgGVAGID54AABCAAAQhAAAIQgAAEFiGA2FgEK4VCAAIQgAAEIAABCEAAAogNfAACEIAABCAAAQhAAAIQWIQAYmMRrBQKAQhAAAIQgAAEIAABCCA28AEIQAACEIAABCAAAQhAYBECiI1FsFIoBCAAAQhAAAIQgAAEIIDYwAcgAAEIQAACEIAABCAAgUUIIDYWwUqhEIAABCAAAQhAAAIQgABiAx+AAAQgAAEIQAACEIAABBYhgNhYBCuFQgACEIAABCAAAQhAAAKIDXwAAhCAAAQgAAEIQAACEFiEAGJjEawUCgEIQAACEIAABCAAAQggNvABCEAAAhCAAAQgAAEIQGARAoiNRbBSKAQgAAEIQAACEIAABCCA2MAHIAABCEAAAhCAAAQgAIFFCCA2FsFKoRCAAAQgAAEIQAACEIAAYgMfgAAEIAABCEAAAhCAAAQWIYDYWAQrhUIAAhCAAAQgAAEIQAACiA18AAIQgAAEIAABCEAAAhBYhABiYxGsFAoBCEAAAhCAAAQgAAEIIDbwAQhA4AAJXLr3r5859+iV+/ydA2zeQTWptNVjd/Llc/fxjU0bht03Jbir919+etvd++6Be/Xru7uqwlF9t+L99I578vXH7uZGLV9Dn9ukDi/dJz++564+nG+swJdjh0JsTO1kX73vrj984W4pyUzlbF84dzrLABpUsvm2++HpDIFiKoB1vnf53nV39s21Zbivs8mJWtVB9OL7W+781efuqIbwbz9xt9+9cO7+E/f8o3IoPWIWCQ+p+4v/gNZ3Wn6WZ0d2lEwsHVVaZPdRb/Pwzgg0/uW2OKY1fnetixE7a/xOPlz3/RnGhjX0OaEO5lxg9vrvwJd34kHjPorYGMerf3qHYqNPEFaYVM+ZOEywTctGE4ETioxfmT04zVIroZA2QVyhnyzV5LZcVWwcIQuVtSQg2ofDJKSeOXyhlfXm+fQZ6Tljxt70zaU7wL6Vv4MErZ2028R39w2zV9/jEBtOnRDuUMweM3bgy3vgh4iNqUbamdioB/2rN285900x9K9tVmbOxGGqbZZ+b/bgtHSFj7B8bGQwujIoijO+jdiIEjNPsExN2uaMGdjdYPc1PkKCtm2rHLrYMPOcPWbgyxL7wxAb7QxF08JFZ7VbirsSG9V3r4ptQv/i3H9f4RaZORMHc7TY8oOzB6ct1/8YPoeNDFbWBkVJWGhio/zMhitoc8YM7G6w+xofIUHbtlUQGw3x2WMGvnyYYiMQGm0jF9+HOUFsVJ376tSdnly4C9M+6dhkbRnloS5XnQt5PVwmbDrOa+E8R7iH0S+rPyAmdJSmzJP7p+7qiwv32q9WN5upbMlo69HWK2xSUM/6rMuJO71/5S6KtvX/1ds6XLjHXHw/OCujfHsgSk1tdC7e417W0NtyYmynOLAIvnzt/rm78/TMPXurPXtQvNnWNTwvJPikOKCIfSbYXiTy6NspcjCcIZL6QN9XFR8KZsxlGwTL5eoe3r4Nta8NvLkyS+cXRlum2xRYeqztTPFC2+KU24+tDIri4JsSG0UbjfvfJea3ilXaF8UqrdQfQ+tkJ5JUu8c9bliWwDDpz+2B1Cfu5LNy0scvX+Bu6HNi7Gt9X4wNXkzoBF/YTku/bt4J+pnWP4Zjq9Rnc34nsb5VRNEXxf+CMxsGbmGL1b36bX9u2znwFaefb4t82xKnmh0IxZh5UoyZg+2HhjjZC/igdQMbbfaNaGwwxruoJynJuilOl4WJ3+391lSOUAfx3KzUj4RdIjbfLys/wpe3rSZX9r09X9kYs+d4ZvJTxUYlMrxgPGrfaBtcmkEmDJ5NE+VgGycLY8VGOfDHiWEwmGlcin+/Xdw0Uh/Wrf9rO7Q/6Ped3CvXDxBeoNbf98VG0+4gwKcCbbaN6kxIG3iGg21bz7QAFt71gvDg3bEJq38IUPQZXWAOba7brR0wctv6+oEjTkhEv438qazrY3fza//Au2Bjg9iQk5Rh37T4bKpN2sB8YhaKhnhRtvVXN91z/xYfU/IviQ3tIH1GbCixaNB+aSLE69t9HDD2WSmkR3a3+cv4WV4vyfATQCmeG/ucGPuqNmbYl080kzCiYPNjnxhT5JWpy/duu5c/928Ii31jykUocV29cVyq6yDBNswaK74Y1TX0FaXPhL5hi1Oyf1jPFG7vG+PjnUVsyGOeND7qff3y78vboWz9Vxp/Yt+0j7EW3696ZtTvFF+eOf3cx+L2XGykDi3mZlc2NNdksRHWyxA8B8n5cNY+NXM9SFC1We9i5nR49Z2eeEaJpMRgzJYI62xEO2sXznpZ3tfqEybsmoCQ3h/zbC2r8rdCZeo5YL+B2FCTg257XpNcSImh3xbh1hhZvA77mT7YZs4EnKQPIGvi0eeWTCitfpuYOc/OupcoNrBdI/VqX8re2pNPUNXZ0/JD0exrrrzc39vJBeGGvpC9tc+axIYc5+UEcsyYkfFXzz7WPqdPSuTY6n+PJmRGx64hv7At48XG/NxiC0vx1jKuSYlvWF9rnFKeUyeq/FZs4xttopzxeUt9RYGvxKhQ0FnjbmBkS7yPfHPMGCuEDVW8aOfYsjF6wxx0z17fc7GxjysbyoxulPSHnpQ+zDlMdOJnpURr7MpGJDakxGlM8LCIhVSCa3hfWw5t6XaCTAuqUhuVZ1MDr7q0nxCS1Z+kb22QsGpL0i2PcAtRvFKREvhlKenBS034vRlXMYZmth5YBh9dbMiza2I9JqyYDMrZwHZtORZRZ5kN78SGunXFt+X0hHdQb+mqzSBmmPvsjGKj3QZWebDpt1l0HrKQ0TOD9nv5+FcH3EAAACAASURBVKH0r1RCGCZ3Y+KcJeESV0oSWZBaV23MynOTnjCJLLUvx6vq2a2VbSW6OKX5R/3vV6mLXcyxcINvFPU1reZNEhuJWNG2rUnQx4vVGrQl3puFsaWNxTezK2OdI9onkBM95eD+tOdio7CHuKfT3+6zkM1mW9loOk5ObOQCkLjftp1FlDv/dsWGLgz9FRg5+Nj3lofvb5xcjxAbqeCdC6rq32cVGylxXvYTb5DNJCXxSYemn40VBW33VPpx13ulrSpR147PzlhWNnQhaPNZ06Dd1nUhsaH6efKGKH1QjLco2rZRpbbRqZyCWGrus1axofpW+npf07ZHge+wnfY+l4sRw7EukRD7XMJ+PEZsqGNOeH100MaUz5nFhp2bPMIP/VVkm4itrR9HPmuOUxsIgW18QxQbtngX8bb6WC0T6iu0Gx8xxU5L/zVPPAorqwk/iMc5wxip7cRYKBXdl2L3X2yUpANntM1MbWiizJ5oKYHROpZlpjI32zdIFMum+R3ojcfiDxBuU2yICZ0hQNRWmi42sgN4kASaVm8mr2zos/7bERvG2azQf7xzNrYZc71v5VY2cmc+usOE4qHxCWIjMatl9VnTgLmg2IiFQTyoyxZJzMBF8S0tNuQ6DL9qFRvmPmsRG8FMavtK2mbyGYagNYOkyf+bvLKR36JlbnfbpuDyDbHvhJNiZrEhr/bl6tgKRXUMNouNEbFKCTe9HR64l9LWQ7Eufp+46R57iXH1GeMsuB4n7Ssb2VionuUxfEMQG9Z4lxUbqTNGAb+cP20S76evbBh9f4Qvb5htHsTrhyE2dmKK1NYL+W/TxUZmWU4UPv071e1XwsqJWJ9wIEsFWGmWVlzxmS4WNhUb1lty1EFkxMqG/i3DNh1FvIr7uJUgJw30oY0tSWF6UDWcP0n0Rz3JMzAqy1VWFC3L6vG3U/3K7rNTxEaYSFhsN0iUvf4sfz+37Skh4kt5H910lyivnezJrGppvhe1PTORkwz3Yd+w+ktYqLYC1T3XbidUVkcyF1lIbcgmXt5L9bMn1Q19d9vkznADoTnOTZhQqauXS3SVfi6MO+ZYpTlEa/vmFkVtIin8984O90+KGxGDW9ISrG1iNMenZ/gie2vVBqsnkdiwx7u82NDHiMimub5u7b+WiUvrGGv2fbsv7yRFXdlHERsbGKRfbZCvPg1ndyaLjexsiuL03oqPuCWg/XtwFWC1dCjcCjJm1v+1cl2ptPd1yW1U/iHY+KrLx+7ky+GBaFMb1QGnX4buvyX9m+R0bfIiX/knXzcpP+u3M/a5+Du9uLhyD6rkpfgv5XNKcln1h+LGsVf+rUhBU1OJedefBN95/EZwA5vnn/22m3ErG7nkLkqCvW0lvj1GiQ3hNyn6+g/PC1jjRSxIWxsX8Edvo/K2UgySHSGxGawo52fu+ysu22eH2zbyfaasg9dnpW6kbOnwrwKP/aWux9WH5e03Tcpc3TKT+rV5j3F3Tknr67Y+l17d9PqmEH+kviP2p7ErG94ZrH68G8adrm+KIjU2Usu/60O+H0k+52/v7GKTz0MbxCUbec9mWETjYPOqKU5tuOqwjW/IK3Dy1d/JLYUSR2mMEMeN3kZd//cFxhvFTXvvFtftT4j3cX+yjrHxRILk+5UsbG6jyvqyNIm7Qe65j68iNja1mrifUB6krMlDWCVxeVNM4sLvKoOc966f6JT/XHb4u/9e/x5Id0uVeYDyB+rmI12QiPeD3np07tzD4WE5ecC1z7ok3x/chb+BoPIG1bqVfqIl7XtNJS3x4NfvEy3K/fLEPS6CrSaCumdLzv/q3AfFs/61qslZ79DR/MQ0J3CVfbS5LYy5xLwP6n7l5OuVuyeKtp+/9cyddTO9xV+E+muDaxQCEr8dI/lsrk1R+Z5oqf42ynbyGa+wH7e/z3KRvMUrsS8+Eil+4jZsUc7mg6dDv6niQ71dxQ0OZit1y832phKftiKCv4T82ljYio94mOjF17k7K4RJ/4ScmCn8PM66+JXejcWd1HeiuoyJ5aGflnHukXNn1Y/K1pM0pm9G8KSx4JV78F0xWfH0TnA7Yp5bagjv7CqJ7tw2mGK80JLsfJzabNWhbNPS31BXer1xUop3WjzTbqscPC9Ofgg2Tp3RM8Z7sT9JPv2q3mYn/ZbVYCwOfL9ul9GXERsOsZGKVHv/t8z2q71v3xE0IJf0HwECmgiB9RGwbFNbX62pEQQgAIFdEEBs7IL6tr6Z2w+5rXrwnekEEBvT2fEmBBYjgNhYDC0FQwACB0cAsXFwJu0bZNl+dcDNP4ymITYOw4604sAIIDYOzKA0BwIQWJAAYmNBuLstuh4Mh/ugd1sjvj6FQHx4dUopvAMBCMxJgH45J03KggAEDpsAYuOw7UvrIAABCEAAAhCAAAQgsDMCiI2doefDEIAABCAAAQhAAAIQOGwCiI3Dti+tgwAEIAABCEAAAhCAwM4IIDZ2hp4PQwACEIAABCAAAQhA4LAJIDYO2760DgIQgAAEIAABCEAAAjsjgNjYGXo+DAEIQAACEIAABCAAgcMmgNg4bPvSOghAAAIQgAAEIAABCOyMAGJjZ+j5MAQgAAEIQAACEIAABA6bAGLjsO1L6yAAAQhAAAIQgAAEILAzAoiNnaHnwxCAAAQgAAEIQAACEDhsAoiNw7YvrYMABCAAAQhAAAIQgMDOCCA2doaeD0MAAhCAAAQgAAEIQOCwCSA2Dtu+tA4CEIAABCAAAQhAAAI7I4DY2Bl6PgwBCEAAAhCAAAQgAIHDJoDYOGz70joIQAACEIAABCAAAQjsjABiY2fo+TAEIAABCEAAAhCAAAQOmwBi47DtS+sgAAEIQAACEIAABCCwMwKIjZ2h58MQgAAEIAABCEAAAhA4bAKIjcO2L62DAAQgAAEIQAACEIDAzgggNnaGng9DAAIQgAAEIAABCEDgsAkgNg7bvrQOAhDYCYGX7pMf33PP3nrinn90cyc1OO6PXrr3r5+5F2+eu1e/vnvcKBKtf/npbXfv6R335OuP3aZeOmdZuzFY3WevPnzlPn9nuRpUnL57cNB+WbXxC+dOv3zuPr7Rs1yvjzTxoqjqrUe1/ddb15Jn7asX7nSWvruct/clIzamUv7qfXf94YvOMacWw3sQgMAhEiDZ3aVVL9+77s6+ueXOX33ukBq6JebkNGdZO/Gdbz9xt9+9cO7+khME+5ckjrdFHfuuBI6r9JHG7q/bhv6wTuCvJsaQWmi9dtcW9CNNzI231fbeQGxMZY3YmEqO9yBwBAQOSWzsWYJUJQ/P3J1gVvUInG50E+dM/uYsa3RD5nhh7WJjT3KOyg+cvKK4Rh/REvepdV1cbDR+etKswMzh+tsoA7ExlfKedPypzeM9CEBgEwKIjU3obfLuy68unXvn7sbbgjapw768OzWhkto3Z1k74YfYmAH7pbv86q67q2xDW6OP1OLgJFoFXWNdSwPta3w7DLHRJP5tT2n33M3Qc/QiEBuL4qVwCOw3AcTGftvvOGo/Z0I1Z1k7oY/YWBz7Gn1k38TG4kZa6AP7LzYCodFyWnK/XPWNrNjoDxwNbRfsIxbqn6t7u0z55I3H1d5A/79IaIX7EZuHB8+1y3L3T93VFxeuLrGtp9COZk9jd6BQsYEbHM5s93GeupPiGy/8SoflKXV2wXPtcmWy/QM6zXaQ7wdvDGc0xLZciw66hf1Rqkv5TGRLjVX5cMOrDX6n96/cRWvf4G/hXvQ4iNe83aMn7uSz4iBZos3WulffuDp1pycX7uIbn0CeT/l0XceAnGjTEzdou+SzSkBU61h95667LA/V+SxEHw32bCtJiNierrxWbBS8rgpe/jcNfhz7jsF3JSZiX+rtJbah7P3tEr3ir378sNjVaX26rLPPwxRLmsObxWyk3kf8w6nLxWIJ+aj4bIg3qXig9ivfhkpf6d/1xiRj7FXbXZyTyfZd4zfy8V3qE30cTTS7G78HUezNW859U4xMwV57k3+LH5PGzlvFyPqi+J9/sDfnn0o7/X5jZNrmLYN2Z88WzJUDtGNAPgeq6pe93EHKKbyxKJf7ZP4uCiNDf5VyQ9sYm2pPzkd0b7d9O9lbZvnjnosNpRNWaBY+HJgTG6Uj/+qme+7fhNK80yeg02Y/++Dnt7F1RuHfguQm6kRepwuT4+xMRPuu+A0vaXFeZ/GCSNuWgfgpON0ubuvwb/FpO0z33IRZqOyhqrYtgyBn269++d5t9/Ln/s0brW/69hDKEtrRB4c4ibfPwsi8u8FmYANL3X2x4LWpDb6ZgSGyX9lFrW1XfExPeIb9fxBsI9/zGSsHGxP1jET7f3fuX6qbfez+bvGdrO+mkh2hb17+fXnjSumPj93Nr/1D1E29B+/ofcBqV00MD26LMseSVmyU0yJaH/HExoKx2OqDRe+pb8fyxyVjvMnHg/AwqjQWyPlCZBdL7FVSD3Fckmxq+YYhvtffC+yfG5eruidsUXqUl3xb/TvlB32M8PKVUChkc4XiC2rbZHvHZwc2yTcS+dSIfqvmHtn8QSTc9ClJmEhxTBY75jHV2F8lO1lifO+XQntMMUzr47bxfRZFkShkz8WGpvZWIDZSg380+znuekZNAEQJiRacwgNGiWQuJzb0JCjs7EqgMwwqFcrwOet7nh1yCZv694rjVXZ1IzR5VJ5Y52YAOul9IHXAzBwY2wE1EgE28SSxkH3BUp7+TLsS0V69uelhPbmOiu9F/cMqNixt3szfQw453xXDjSnxit+MGWrttdpVZmG1fTcIewlJvo/E124OWxrWaVoipieZcXJmtmkQb/S2Jvwwmtgyig3pMWOsNY9Llm9kv6nZK46n0ecy42K/smH170QiPDH+dj7vv6/VW+3n4YTXNB+fLweIk317/pASG4IQsuY+RbHWMdWcHxjjblyefZKgpjHNnuWbk8aTDdXInouNFa9smMSGMlucMara+QMn15bP2uK7GZxUYPeWDaWzMHogsgY6JcELGUR1VGaJUuwSKzhV15W2+XjljT0LpAWT4ZWAccBIBQJrYEwFotzgoQUj7b0waRTS134GSrRPP1hobdfaHRa3HbFhCfLaMzZ/14RqNZef3fZQU5k6oNjFRmqyp6xBa1cpAYwTOXssSbfN1u7YPvKK8fgR1hqfrfEmm5BJq4riLKzQMy3Xe2YT/yb10cqyJF9j47uyBaZrYbg112u6yjOqg9W/BR9RmVkmKpREUuGY8vdw9WeSj8+WA8RiY0yfV8cVwf/NuU8XJ/MHxK39Nb/FXovPlnHFpzD2+f5dW4wcH/tSb+y52CiapuzxtQ7Ik3EaAqjqnGHnGLQhv/997sFM2s4y5DIMuj3bdOAc1nNM8qWLyNCuw6Bi2ToXlN3ZIiVcSxoZu6iD3/C91ifqdlw1Sfjwma2LjVF1jxlnxcaIxGAvxIYp+Rrh70b+3Q85tec/MlvXLKJSi5/DbahKPx9t10IqVXU+qX+QqmhHtMVE+ZGqsC35PjJc2VgqFkvjhy0+2+ONPTken4iownJwxqsuNzem2tpdyeDO/iE/c3xPnX0rC030DTPPEf4d+cFIsWHyTyXnSPVzsa0j841GSg4mjKblAKHYGJM/iD1N/eFOszAwiw17fxXFhinGp8WDyUckTKZvT86EzS/uv9gomxoEnrEz0GZa/oMZsdEmwcO6ZJRoYjvTYBgxziCZ1aspefIHifCAqZTkh4HEnnyFszFV23N1NJ4diDn2CY8pOROdRd4fqq1sOPEgfl9wPpHKz8LYVzasdVcO9xXVzoqNEcu9eyE2TO2x+rudf8p3JbfM9n9l9nv0ykb2IGcdC5695V8OEYv37CynJ0TyfaQXG0vGYjEFMsZna7zZZGUj9wN1YR0mxd4GglVsTPpGGN9z40FiUDeLDVM/Vz40QmyY/XPyyoYyCWfMN4YtbJPuKTnAhJWN5C9k6/lUNvZ5jbLuFrD211hsWGN8rj2vgx+RtqxsWL89KQse9dJhiI1RTZ7p4YzYkB0z7xyW7SKtwg1FVRTEjft2s4m8j6wJUO0PysiBshcHr7PnU8JtJelZ1NTgmU96Q9sPv622JecyysASBTzj2Y8xiVRdNWmvp7b/Mwg+1rq3okL4VeY893BLnQ50DWJjcGi5qGrrF9Fs3veplTSj2BjBf0jNsB0r1//NM6WZMxtJDn0syP0IlT2WjNtGtWQs1sWGv2rT9NLgQLM13ujxQO9X1rKHbKbH3ioKSQe2o3+f/o1hnJGTqFyorv6u9Itp/Vz7olI/IcE3+2fmzEa88pRnZMk3ohZOzgG0MxthEi3lD2JPU1c2NBtLpVjFhrVPRWLDHOP1/NDsI2EDzd829ZyNHkJsTMVnXNmIbp4qv9cm4JUjXLkHr9rbYPLBoQ/qdcVbwdF2hOHycb/0F6+wPHYn7S/sZmZhrj4sb66RB8w+0Y1v9Xkx2HpkTL66wckbrL1lwI5nyf+zk+I60/LmH1twKjvs4zf6a03j4NEm6MGsa2Sn0GnixL6zh8Qg8jn7NqruCtFuT7K/xU26nazykuZ6X8kfrHXfZGWjH+DF64uLm8deNbe27VZs9Od2on5VNEG6paZvz9SVPBv/vO8mBmMvTgwGwjfK+FNcde3tb++X6odCSksku1Vl6Trfzq76FgRx5VfsM/Y+EvpQnER6fWZMLFZWgqJo4J39SsdnW7xJztK2M/7S9cGJcwttneWVjUzsVcZMf5tHqt3RZNnE+C6PeXUf9uN8XN2Yu1/3QdIu8S0KrL7txS2x9zV+MBizHjaXvicvOxD8MznGSXFd+LdJ+UZdzjw5gDSGSH1A6RcR5NTkrTH3aW1p+lE/W39VVza8m+iS+UHiDEoynxT7pW18mZoGj3kPsTGGlv+sumdUv8P+2v1zd+fpmbvobh7yE8W28Py5g26AeOTcWRu8ytfFwUUZ6IU7uqVVAz8IdzVs7+DveFjaYRcb0p7eW4/OnXt45rrD1dI+xMzg2nfw3pDqbFDoF7mtIlF9CjtW9vFvsRLEpPfecIDWb9MJ21G24V/cB8GvoPa8z93Z4Pctojab6r6h2Ch5Kn3GTzh3LTYG1w9WPlD2x+L3OYprS4cH+/3rV1tnEQR35DfCioSBv81304Kj+6tww033t6IPnb/1zJ2Fg29Qx/Cq6ut+HGoKi6/8lMXw0B8tsWTcykZZnTCOTYrFuZWipt3j4rPU3qIgz0bZLSFSv8rFq7Cu3YRXPF5EsVcZM7uVhw+v3L3kuGT4hjG+S/0ie77OT9y7tpS++cC9rLb7Bb+zY4hbMhKpna/cg+8KofL0Tj9RZvLP+gsDP5aupx6ctQm3Ktr6VtiW+XIAbQyZVq/8bUyG3KdorHVlo7GAfNlJ7tYwQ4zPtScfw5SOafq28u6M/4zYmBHmtooy7x3cVoX4jomAvmRt2BJj+oL/UGrWZ3RhvACB6QTU7YNNMuBd+zz9I8u/ad1yQnxe3hZ8AQKrJWC4PGi1dV+wYoiNBeEuVTSD2VJkly1XtdsiwQmxsaw1Kd1KQJ2Z3+CQr/Xb8z1X9ycXrerGXyA+z0edkiCwbwSyK5H71qCZ6ovYmAnkNothMNsm7Rm/JW0NaIs3bnuw1waxYWfFk8sSULYKlR81nCtYtm620quY62w/vkp8tjHlKQgcFAF/u92exLVt8kdsbJP2TN+yHE6b6VMUswgB7fDanB+LD/bNWTplQWAKgXbfce43G6aUvZZ3iM9rsQT1gMD2CLwsJhMfFxduWFY/t1er9XwJsbEeW1ATCEAAAhCAAAQgAAEIHBQBxMZBmZPGQAACEIAABCAAAQhAYD0EEBvrsQU1gQAEIAABCEAAAhCAwEERQGwclDlpDAQgAAEIQAACEIAABNZDALGxHltQEwhAAAIQgAAEIAABCBwUAcTGQZmTxkAAAhCAAAQgAAEIQGA9BBAb67EFNYEABCAAAQhAAAIQgMBBEUBsHJQ5aQwEIAABCEAAAhCAAATWQwCxsR5bUBMIQAACEIAABCAAAQgcFAHExkGZk8ZAAAIQgAAEIAABCEBgPQQQG+uxBTWBAAQgAAEIQAACEIDAQRFAbByUOWkMBCAAAQhAAAIQgAAE1kMAsbEeW1ATCEAAAhCAAAQgAAEIHBQBxMZBmZPGQAACEIAABCAAAQhAYD0EEBvrsQU1gQAEIAABCEAAAhCAwEERQGwclDlpDAQgAAEIQAACEIAABNZDALGxHltQEwhAAAIQgAAEIAABCBwUAcTGQZmTxkAAAhCAAAQgAAEIQGA9BBAbU23x1fvu+kPnzl997u5OLWMl77389La79/SOe/L1x+7mSuo0rMale//6Y3fy5XP38Y1VVtBQqZfukx/fc8/eeuKef7ROyoZGzPtI2Yc+O1mx383b3LGlrb9fjm3RPM9XXL574F79et8j7zw8KAUCEIDA2gkgNiZaqBrwvnDudK8T4Lrxl+9dd2ff3JpNONVsXrtr92dKrCth98LdevTKff7ORIPt/LVSMJ25F2+ekyQ1toj87ttP3O13L9xrGC3SL3feBWapQC3aL9wpInUWnhQCAQhAYHkCiI2JjLcuNhZMuBEbE51g1Gt7Kja26Xet2Pjhgolk8w03lxAe5QPjHp67X477+lqfRmys1TLUCwIQgIBGALEx0TcQGxPBTXltwYR3SnWmvYPYCLntJJlGbExz39W8hdhYjSmoCAQgAAEjAcSGEVT4GGJjIrgpryE2plCb550F2SM20ibaCZ95vGbBUhAbC8KlaAhAAAKLEEBsTMQqi41mIPw+LPRacLajmeX2H1O3jihlds/XZV3dP3UnX1y4F1WZ7feE71R/H57PaJOa0/tX7qI4a+H/NzwnYSvPCQlq/Y0YdngOoz3vMajDm7fci2/CMxtG1s1M9knB56rgU7fOa39T12HNNrGX5lDKyob4/aKM4NyCyCV3hsXSNuGZ+qyNq/fGh74c+V1wLkdcOZBsdcvdevNFYVffF2NGUrsrDw+2QVX+dXXqTk8u3MXAz3pbyj4o9YXAhkHfHGWLlm90DqVlop+VEsXGUv5S2e2Zu/PlA3f1bnG2KBGbbH05EZdcczYn7CpRDJTiZOE3Re1ehGc22i14uTJVf+fSholDIa9BAAIQyBJAbGQRyQ9IYqMdhAcJtLAPfdKMpTrD7A3IYUJTfvtXN91z/9aWphw/WeuTBy/xkfbPG8uLxUaZWD12N7/2b+5q6u0nGNI3veTA52pl7bwkJDqwLh5IjmdOJ9krchtBbChnFKK2Tdn6Y2qbYWtXxu+uwrMPQl2lCwNEn3NxfS7fu+1e/ty/hUxO0sXypEQ/wbKtp9R/uzMeo22hiApDOeoB+iApn9VfAiEX287Yl1tblv0gjEuFXW4Xt0n5t7JJ7OM+7onWAYM2Bg6FW1x3g79PHA94DQIQgAAEdAKIjYneEYsNfSALB9JJyWtWbFhvk5ISOvk2KttWMaHdxq03IQf1e1F5dtad2BBWjtLfu+pWoybZyyA2dL6BEDMkpuHnbG0zJF8biw1920vM1VCfoqG60A/7gPBtlWWmnsWqSXU19GRbvB7cpmbpW+b+0Sb2rY9PqGPbT+KD8zabqLYMVlHVcBvVWfuuYCfVR0OhZ2vLxCGB1yAAAQhAQCGA2JjoGlGykBrgw9UEZbY+WZWc2DBfF2oXG9J2qLiO84kNNakP2z6GdeJZbTtI28ZuhnuKvQxiQxcxYZKkzejqHmNtm7zC4JW7sdjQE7zlxUZzrXMrFMpmqf6gbRHsvKG5Gnq8LYpaBNce284dhHyW9Bedy7S6xm3OBNrQLiNEYUq41cykrXTWyZmJAwSvQQACEIBARwCxMdEZogEuNZsvDpzD5Cb7mxQTxYaadHrixJzkF6ws5YkiRdtr7s18musxhnUuaYnO17QOkT63kbVXVmykkziJxfCsQCpZ0s6zKG0b2CZo967FhrYXvzuXVLdJ853q3y1iQ/1Owyx5biOfuA7qZ1x5GLZpSX9JiTB9JSEOnenzN/3zun92/SrXb70zG6mVR1GIpPx94njAaxCAAAQgoBNAbEz0jikrG/KP0rUDb5jcBhWbIDbEPejivnjlR/2Cb1rLi8SGeH4gThDNYsOwstGxzq5s5BPFoSWM9sqKjdSPKWZmk9VDx/1HJ239SpyZiX23PQCcOyC+ycqGcK6naKJ9G9WElQ3zCmHD2mCL6kmvLz34zvaDoKNXNrQfurPU0ZrcG/tyamUjXG2o+Cy6sqH0ceXM1MQhgdcgAAEIQEAhgNiY6BrqmQ3hbIA4uPrfbQa9k9TtQhPEhpxwatuoYrEjb0EIB27DNiql7vKe9OHe9hJTu5rSJ7xyEto/67Vl7IFgiz9Y7GUQG7J46xOv1C9pRzP2wffUsjPtq9876X9NfqTfyQeKy1utFL8Z7OkPfEmx3TJiI387lIYuZ4v6vbZtxY1ZV8WNWSf5X5K39o/uXFJCKGXrqCXeobgw9mVdbChCWjuzEcbThCCOVxv1ONHaMvJ3S//nGQhAAAIQGEUAsTEKV/+wlPB021y8QT/+t3qwvfrwlfv8nSYNCfYVi1VSZhRTM4jqbSzlB6JtVPVX24Q+1ZZ+UFduwlLOWLz2EgfxrEC3laVNTIfbLfzZdRvrPnGXfzG6rX8gtKp6XLkHr8rbsyz2siSq0gy/9H3h30qen53UB5RLI6m+4HuOoW2DdnoJsXRDmJDIhiLQ3+blJ36RrQZbllJbb9o29M/03xjazLyNKjxM7SNrVwCkLVPF7UmvylvdJtmi/ojPR17lHPZ89UzLYAvZTP7i2yS43viF/z0h2ZfP/eRWtPpYo90Y15bb+ZK//Wlgoz5O9FyFfzP4ezyxMXGA4DUIQAACEOgIIDYmOoN2KHG4r74uXPxNgOA3J+zJR1PhMCFQZjXDMxbX7p+7O0/PBjOr3aznh1fu3kPvhn11laaHJpVnOrNRlH3+1jN35s+iARfD5wAAIABJREFUl8WGZzuqOtx0j4vfEnHByo+FtX7wtW2DcjBYEWPtW+Lvj6i/leIl8pGdpO8HqwDSeYLkt6xtM3y7KGrgQ+KVox2VYkXkrrusfvdluL0q9sPi7288dtcfun4VRdji5yei9VcKNo+cO3vY3xZW0a0Ee7xdRprRT559Uc4WhdvyBr9GY7JFUclITKeDT3JlcvDqDP7SrSw08cE7yxTFJqGPxn05dfNTfGbj1qNz5x6GfiM998pV29Ce3unFd8VCOgdi+L0c8TeHPCE0cXzgNQhAAAIQ6AkgNvCG+QmkDnDP/7XdlzhpW9Xuq00Ntk1gxVevGg+tb5sY34MABCAAgf0ngNjYfxuurgWW3xBYXaU3qFA1A+3ye/A3+ASvHgCBqedottJ0xMZWMPMRCEAAAsdIALFxjFZfqs3qnuqlPriCcqs2+1uBVlAnqrBCApZzPTusNmJjh/D5NAQgAIHDJoDYOGz7brV1L4uE5fG7F9HZiq1Wgo9BYI0EqmT+mbvz5XP38Y01VrDc4vXYnay2fmtkRp0gAAEIQMBCALFhocQzEIAABCAAAQhAAAIQgMBoAoiN0ch4AQIQgAAEIAABCEAAAhCwEEBsWCjxDAQgAAEIQAACEIAABCAwmgBiYzQyXoAABCAAAQhAAAIQgAAELAQQGxZKPAMBCEAAAhCAAAQgAAEIjCaA2BiNjBcgAAEIQAACEIAABCAAAQsBxIaFEs9AAAIQgAAEIAABCEAAAqMJIDZGI+MFCEAAAhCAAAQgAAEIQMBCALFhocQzEIAABCAAAQhAAAIQgMBoAoiN0ch4AQIQgAAEIAABCEAAAhCwEEBsWCjxDAQgAAEIQAACEIAABCAwmgBiYzQyXoAABCAAAQhAAAIQgAAELAQQGxZKPAMBCEAAAhCAAAQgAAEIjCaA2BiNjBcgAAEIQAACEIAABCAAAQsBxIaFEs9AAAIQgAAEIAABCEAAAqMJIDZGI+MFCEAAAhCAAAQgAAEIQMBCALFhocQzEIAABCAAAQhAAAIQgMBoAoiN0ch4AQIQgAAEIAABCEAAAhCwEEBsWCjxDAQgAAEIQAACEIAABCAwmgBiYzQyXoAABCAAAQhAAAIQgAAELAQQGxZKR/bMy09vu3tP77gnX3/sbq6x7V+9765/drLe+m2TGSy2SXv8t0r7PHTu/NXn7u74t6M3Lt+77s6uTo/a96v49N0D9+rXcxDd0Cj0vw0Bru31l+6TH99zVx++cp+/s7a6rbU+NbNnbz1xzz9aZcYwAhz2HwFr1KOIjVG4vIerJOKFu/VIDkrVgPiFc6dfPncf35j6kd28VyU039yaN0H6xqmsxrZy7vqN/f6anofFmqwR18UeB+pB7uL7RL+rYs7VXsaU+azUcHKe4Gpi8bX720926H/zWXYVJX37ibv97oVzvi/t0L9WwSRbiUv3/vUz9+LN89kmAOp+NV/OkG1C+4Bkf/PLPJgigNiY6h87FhtLDnJzlz134Ji7flNdYA3vrZ+FkBxuE9yOB4/xYuOaIibqAf1qBwn1FHMt55e62HAzJjvWNi/XTmsNjvO5xbgnxMaS/rVYezr3WDIOIzaOsxeOazViYxyv/mnExlRyG7+3fGDeuIpbK2D9LJYc5AyY90ZsZNry1aW7fOfuLFuxDNQ2fmQ5v9yxPwVklmvnxiY46AIW476jeLFYe/ZUbOzMeXdk/521d4sfPgyx0ST+LTdta9OsXBEbs+IcU9jygXlMbXb77PpZ7Dg53PHgYV/Z2K0fzf315fxyx/6E2JjbVSaVt5h/7SheLNYexMY4/9qR/cdVcj+f3n+xEQiN1gyL79+dIDbaw52nJxfuotiP2P+nbZ0QnKrpDK+DP3Xtbf5+cv/UXX1x4ernmn3gyrvuh8MDp23gO71/5S6+GH5pIOSM5cUJV7PsGjUv3K/e7mP3H7zlbr35wr2IzpRIz5bvBWxTfDJ9uDs4/+GVu1ec1xlYMNjeIh/klROldpvZoMDAJs7NwGL0NhOF6aAcuV7VgWilb7Y+VPtF6MmFxQYs2+1Dp+6k8Oeauq2/iFzbvlCUIv892Ccs+kttqaodrj67pfXlzvfvnxR9yeAzoV+LDIftr79x4rL91TRGWWxeeKNgu4rHG/Wedy0+tXUND8zLyZYQJ35Y9P/CC174ZzaEBMHkWwnbxltmRvQ/Y1w0mUN4yOS32cKVbXkqy5n8S2EznCBMxJTM+DfKv4S+de3NW859U/RTPwZFTIzjl8W/cuN5aUdDDEia2xSHA/s2Md7Uj1y7jerUnV4Vuc33w/Ha7+u28tr44p15NfapUbHQan/rWJHtc+UDxjzFUJYlb5gl5zTUxfLInosNzXBVKjDbAWcR5FSxUYkMr26tw49MBNWZEK9TRoKr+Nbt4hYX/8aItvP7wb53Yq+ebbl+EmwsLxIbZVm/uume+7fJCIfw2rr57RDr5gUDUQz5dU7xyfSYPlD6yV7rg8ME0Co2JP4ukTzZWQQJecZfpabXrNPl5Gfu9Znoy/duu5c/9y9QkA5JewP7yD5StUmdqSq/9djd/Nq/Jar5VtZf/GTD49P6lldP2Wfa94cxKurTQnndYOUl2+I3pP5qGBEsNteZ9h/Q4tOYZLDt632f9uK9YCM/QTT5lhgL5P5sj0WybaX3DeaIHpHLkb+ZLn+s2Cjlo+Dr0aRI6qtC/+pid98X8jGlnSiIx3i7fwnMtLEhjCHG8avtJxW5TrwkxgvpUhZjDMj7kh6H5RhVl2jqR63YKF8QYt9wzLLEfEFsjMo1LL5qt/98fa6f4MrmKcZcRCpnGAfrg/Zz5Jx5H0s/sediQ5thWLPYUGbv/Zk6g1WzYsM6CAjJWDpRyNywpSbKuZu5wkNmqSQ1vC1LP6AWJfMTk7DSJOogKCTyNrGRaWN3xekcLJoyTqw3hmhMh+XkE4Nx2170VbCJkweq2JA7mZbwD2Y6VV+I2zraZ7yEI/1ufyuV9tz4rRk2m29HbGTqklnZkKwrTnqENw+VL0b9eUT/U0W9JKQNgX7wSKIvjb4xaazYiOP3aP/S2LQrAM3NjvmYMoPYyNQlvbIh2U3wVy32aOOFIDasMSDvSXmxYd0NosboaDLIFvulNlp8QJ+UM/iq2f7z9znp1i5x0lE1qjVv0PqJzS55nxr3xJ6LjX1c2YiTJjkxTRsyJzbC5EgtbYTYiAdhodTZxIYuIKwJYVW7cBAemXz6LVQDoMYw+j2EsJOnxLIvmMeziDcnNS0ZKUKz5WRXisYFNvtAZgx0I+1t9S3ZF0aIDUO/07bLtC0fbkeLB1htljcXC7I297cCKP608cpGckWquCJ4SbERJL/FkK1e7Rm2M5UkiatGRjeuH0vc+iPOgKcK31xsjPWvfgZdrle4FXi4IjB8Z1P/GhPLLeJatI3mw5F/6eLJGgPybpQTG7nJwP4LY2K0RZBuQ2yEvmq3/4x9LjUWjZossOYNGb/a8u817bnY6JPJsLNZVXq+kypPTN5GtUuxoYuzeHuOMJOszfgN9mjWvPzypI6tBtFudsQ+wCdFkLQELs1mGhzBHqCaTp4TG16iLn6+S+TGs1CbY92KpOzz7cpNnduQ/iat3Knt97duJYK9wWbJREFtY7x9cPaVjazYSE2kVD2suyJX88uxyaC8N9yDHPjOMHnMbAlritHqZBV50jYy0cYW3zIng/b+l0quTLO1KZ9OCuex/WT7YmNc4hz4f+B7uxYb+fGrMKTZvzIz0ML42oyyI35zZ6LYsPSjEWLc31o2dHXpHJovgGy5izUWmsfyOftcKmccMylmzhsQG5YUYdwzO7yNShM10iyWFiC3tbIhzqxlkx7PFEFnsZYXdmx5yTAcLO0DvCWh7PY2junUgReaA1Q5Byn+0rOyspEVADOxGNOrJnJS99lHYkPevz1m1szUnMyA/zqXxCjvb29lI799zDrAZnlNtHknUjyWmyaD6bM2uZUNo2+Zk0F7/8uvbOTtqdspP8tqXtFuEsTod1tGrEyPFbNTxVYcUzbfRjUmloe+aBu/5hAbejuzfTl6YIrYMPYjs9iwlhdvWZ6aa7QYllzZMPc5w8qG7SZV+8TCnDnneJ8bvrH/KxubEpj8vtxx6uLkv81p+PHbqJRgo4qN+MafYYe3lxcGdrnuYQfS9ji3S4j+oK3bIgpSUxOqwqrtIBMKTGnwEdvYzkh0KxbWfdzzsBjn6in/TpUUzpja/aQsdWtiQ5llss6wjxMbr+ubq97puVl8Rk5qYvaziQ0lbln8JhTXabERbtkY0aejPiQkdVaBaBYbI/qfuh1ian/y6evxwuorfWlywiLFuNn8a9RWEb/d8SrMxv6l1EWM8YGf2MavecTGeLtqvXWC2LD2IzVuBD5vLi8cB+xjiNlXzfZfoM8JW0/HbbG05g2sbFjGrr14pt9GINzaVLQgTDDmFBtqEEok09EMkbccJ99y1Leha2s0e+m1UylPW9nov+ntQZRu8mn/bbB8OJwhlOon/Ztt/63sfr29vW1i7apaGEDCW8b8ugc3elVXpwbvV98qbg571dzYFbVlJItKAherLY/feDK4jSzV0UR+QTlhmXoSHYrXOMHs+c64jUobCIWktd8aMfc2qvoUROfvis/E8aFlJF3ffOUelNcLiwKtturYmef+naK+wopP5ztl/T87cU++/tjdLF9qWQp9N5qpi7j7+4+lrVgCt/KbyduojL5lFhveVb/ZWNRv95Bu0RJvocmubHq9VPIdLQZlRtFwPBDj26z+JbGpIlNxJuaxO/myvpnOElNy49/rcAtqxUKYoPK2I/pbowYTSoGfxIJEHr/GbKPSRYUtBlgSJi2h1RL0btLU45aM0QPGkq2N/VLwOWvuYhYb3Q1afWxV7T9jnzPnKTmDKn0+zBvmzDlzVcr9nZWNHKHc38V93/LvAMxreH+Q9gbk5Mx9vO/x1qNz5x6eOX85vZulDH9PwvDbD1J5UgDwO3adiJ27O0/P3EVwW1L8XJEsv/G4+G0DF11t7A+WrdmibW4br2wUs7KP7rhnD/3fEpC3RoR1LxONu/9e3KQVnuVQzg7IYrV3yKptI1hYf5/Cd3mJaXxeYHikWGPePhVuaevfLjg+cu7sYX/TUvJQbK5vNn8ftkG4drotp/Dv87eeubPiNyu6u+FHzMbp19IW5X154h4Pfn9CObsV3Ugz7Oddk6PEfoYD4iKvrif1+8MHQrf5exQblPjUJRK91Ut/+Rf3QfVbIcPf35Di1Sv34LtCiD+9E4kd6QahpG+NEBtVSlxdBW3pf9L+cmFMmDrTL8WLMYKla0LoW6VP3nWX14fjgT2Bs3RIZe+95z+mOO5ft1qNH/0kSvi+6l+RH5ftf+Be/viee/aWNymjrv77viCMX6P8S+8vfdIf8B1r86C9uQsmqq9JjJQYXeYQD767F/eRj6opifo/U3nSCrctdxnlq1b7l/Werc/Jv1E06YyxIW+YN+e09G/9GcTGZvx420BAnzkxvLyiRw6lHStCSlUgcLQEpqw8HS0sGn5UBBhrD8/ciI3Ds+nqWqSeL1ldTdMVIgDumcGoLgRWS6CeyXbBWZ7VVpeKQWCLBA4lZ9gistV/CrGxehPtbwUHy9ljl3xX2GzExgqNQpUgsIcEqmTKWX9gcw8bSJUhMIHAoeUMExAc7CuIjYM17e4b9rLYU/hBsf/+TnPwb/c12rAG4cHYDYvjdQhAAAIQgAAEagIHlzNg2I4AYgNngAAEIAABCEAAAhCAAAQWIYDYWAQrhUIAAhCAAAQgAAEIQAACiA18AAIQgAAEIAABCEAAAhBYhABiYxGsFAoBCEAAAhCAAAQgAAEIIDbwAQhAAAIQgAAEIAABCEBgEQKIjUWwUigEIAABCEAAAhCAAAQggNjAByAAAQhAAAIQgAAEIACBRQggNhbBSqEQgAAEIAABCEAAAhCAAGIDH4AABCAAAQhAAAIQgAAEFiGA2FgEK4VCAAIQgAAEIAABCEAAAogNfAACEIAABCAAAQhAAAIQWIQAYmMRrBQKAQhAAAIQgAAEIAABCCA28AEIQAACEIAABCAAAQhAYBECiI1FsFIoBCAAAQhAAAIQgAAEIIDYwAcgAAEIQAACEIAABCAAgUUIIDYWwUqhEIAABCAAAQhAAAIQgABiAx+AAAQgAAEIQAACEIAABBYhgNhYBCuFQgACEIAABCAAAQhAAAKIDXwAApsS+Op9d/2hc+evPnd3Ny2L9yEAAQhAAAIQgMABEUBsHJAxD7Epl+9dd2ffOHfr0Sv3+TvrbOHLT2+7e184d/rlc/fxjXXWkVpBAAIQgAAEIACBXRBAbOyCOt80E0BsmFHxIAQgAAEIQAACEFgdAcTG6kxChfaNACsb+2Yx6gsBCEAAAhCAwLYIIDa2RZrvHCwBxMbBmpaGQQACEIAABCCwIQHExkSAVYL59I578uGVu/fwxaCUa/efuOcf3Wz+7dK9f/3MDZ8o/3RreKD420/c7Xcv3Mn9U3f1xYV7Xb3tPVMdQo5LcW+eu1e/HnksufrWM3fnywfu6t2gbj88dU++/ti1tXfupfvkx/fcxfchqGvDMwq5+keclXKD9oiJfPOtmlH/3/BcR839quB5UvD0yVX2+fvLirdfxuD9EYzG1NFFfCc6IK9BAAIQgAAEIACBPSCA2JhopDrBLFNVP+luE2jv38qk9Vc33XNfEDTCYSBKvAR6KFaKT7R/CxLVyecZlG+1bfK/L35Dqk+q/gLjutxAsDRc/KQ/TuQb8Say8AWcJ/I6ATMUOP13hDJHMFLrGAhKie9E9+M1CEAAAhCAAAQgsBcEEBsTzaRunRES5vgTTXLrz+IrgqJ8V9+mIyfe2SY133KDFZjyrbBeQj2bwtvEuUvYE/U3tb96qBEDJ/1qTdR2jW+7stLdWqXUXXm/Fj+eWDEzEuyj+kArdoJVrazBeAACEIAABCAAAQjsJwHExkS7qQJATVL9D+liIxYAhQQIE+GuqInJq1rHpjzXbKVKtSVcnTG1u6m4sg2qa5a3ahFy7leUZMP1qzJLiY2AkSAGU2c4xBWdiT7IaxCAAAQgAAEIQGDtBBAbEy00Rmy0W5GiTwkrG7HYiJPbgWxRhUiiYVaxkVqlCcsYIza08ydtlT0uIWeVZfNutDUqPNOy8cpGXmzo4jC1SjXREXkNAhCAAAQgAAEIrJgAYmOicaxiI9puVH1v5pWNdiXC2har2DCsbITbqKSVmahaI4SJvLJh+QG9Na9ssI3K6qo8BwEIQAACEIDAfhNAbEy0n3bYNxQX8iz3OLEhC5ai4u12pLE3UmnnK6Ly9DMh0XagEQKiE1uGm5m0MxvRIfrIjvOIjddhHQXm9jpOPGMz0Ud5DQIQgAAEIAABCOyaAGJjogX8swNd4ttuD4rOHLx20VmC8rumbVTeSsjg5qv2tiX5RqdkMu6fmejqKpfXtTPa2lTcxGWufwxZKrdqabEt7PEb/dXB8QpSf6NUfNXtY3fy5XP38Q2P2YbbqKqrcU2M/NUWqY5yvbmhamIH5DUIQAACEIAABPaCAGJjopm6JPjRHffsof97DfEWmfCcwbX75+7O0zN34d261K5S6NuQpN/riL+lroL47exWIZp6eL+hMUzg65ekQ9na9bymbVRNXeTD3kPxJG9XU36jY7AKMc/KhmttlWBkr2MgDD22+ZWaiY7KaxCAAAQgAAEIQGCHBBAbE+GnbhyaWOQsr1XC5ir8Yb6g6FFbnmap1uRCdsZ5jxhNhsuLEIAABCAAAQhAYGECiI2JgHeWBKfqWyXI5S+Dt1uJlIf3KJFO3ew00XS21/aIka1BPAUBCEAAAhCAAAS2TwCxMZH5+sRGvbXo2Vv9eQe1aXuQSA+2WI09AD/RpoPX9oDRHM2kDAhAAAIQgAAEILAkAcTGVLrlYfDPTtyTrz92N6eWsbP3yvMM/mHqnVVE/fDLgu8HD6/yqzSLVX39jBZrOgVDAAIQgAAEIACBmQggNmYCSTEQgAAEIAABCEAAAhCAwJAAYgOPgAAEIAABCEAAAhCAAAQWIYDYWAQrhUIAAhCAAAQgAAEIQAACiA18AAIQgAAEIAABCEAAAhBYhABiYxGsFAoBCEAAAhCAAAQgAAEIIDbwAQhAAAIQgAAEIAABCEBgEQKIjUWwUigEIAABCEAAAhCAAAQggNjAByAAAQhAAAIQgAAEIACBRQggNhbBSqEQgAAEIAABCEAAAhCAAGIDH4AABCAAAQhAAAIQgAAEFiGA2FgEK4VCAAIQgAAEIAABCEAAAogNfAACEIAABCAAAQhAAAIQWIQAYmMRrBQKAQhAAAIQgAAEIAABCCA28AEIQAACEIAABCAAAQhAYBECiI1FsFIoBCAAAQhAAAIQgAAEIIDYwAcgAAEIQAACEIAABCAAgUUIIDYWwUqhEIAABCAAAQhAAAIQgABiAx+AAAQgAAEIQAACEIAABBYhgNhYBCuFQgACEIAABCAAAQhAAAKIDXwAAhCAAAQgAAEIQAACEFiEAGJjEaxzF/rSffLje+7ZW0/c849uzl34lsvbg7Z89b67/tmJe/L1x27faW/ZuHwOAishcOnev37mXrx57l79+u5K6rRsNV5+etvd++7BTO2t+blHr9zn7yxb74MoffYxo+T/2J18+dx9fOMACJV8Hjp3/upzN6437kG+cADm2UYTEBtTKX/7ibv97oV77b//w9OFEtRDGjjnb8vle9fd2TfO3ZppYKzLuzUhME51Jt6DAATmJHB8fbhOyi7cTGNQM765+/NNcFVi6It2xLzmTteeSLdjvEGwzu5vVXL+wjamBbnItRltFvbJup3jbVfb3k2w+fz5wpxxhrLsBBAbdlbDJ5tgoL0+V+Jbl7/tDjfzwDWANH9bEBtTnZj3IHCABKrYfDUhsdlnFjPH7FnFRlO370O+45PWrVqoTeINk4i7EhtDAdfTWUpwTB1rERtb9dxVfgyxMdUs2syDN8swn+CYP0FPN3vmgWthsTHVhNp7sw8cc1eQ8iAAAZXA5VeX7u474zZr7D/OmWP2nGJDnaV/6V5+e9PdPIBtQrOPGaaVDT0vePnty4LrejYBIzb2P8Js2oLDEBvBKsN8SX4CbyoYjJgRsRkQsWHjNM9Tsw8c81SLUiAAAQgoBNYrNqYnmvtj7NnHDIvYmFMQLox6ug9sO/dZGMQRF7//YkPZzrTUMmLnK5lgIO5tlM55FAXmxZHc4dolzdB/h+VJS9iJ8wgKz67Mpg0n90/d1RftmZWmPKV9brAM3bbl1J1eXbiLwdJ6UC9Tec7Fgaz5RtSxw3bLbG69+cK9CM9sjKrLiTu9f+Uu2v3J3p5f0WbhMr1gg7w/K3Z+5NyZfzCvtV94vkX0Z2X7Q7CHuWrTVWHPk8KexdmZ8r++vtPLqAqq2Nx1l+V+dN9Xwn3URvt0WxJ93zBsk3Biv/D9ybZVpPbVwD+aukRxwNymooBc/Uyxp+43V0XfPin69ovakuntSBlfbX1jeNmCMTEWY00DS/HB7HcSZVb8Xb1Xvv9PaL/IOnguFSeLwm2xW8tMhPj2w1vuVmGxF+GZDUtdpc8IiezkOrd1yJ19MPmozq5sRtuH2n4WHkiORUHK56Vx1zpmWMegdvwanP50t94srPlN7sxG+438+UKz7UQb9L49daydU2xsunXMMgZLY9qY8ah63527J2889s4p1R1tEOczcUKO62FMkuJBf3bLbPuFhdCeiw1tgK9MuuwB34zYaDtE71iNQwSJjW1GJA56bfnDJDQOPtM6eSIZ8IJRlAAXTG4Xt6H4N2apHEoTeYOP2B5TeYLYKOv4q5vuuX8LTWMvv87SN/uO6fuPHNSl9/tAGCcpMYuCQTSoT5vJMbdlhNgQBbPg9zKzOnJtUsZgUIkEm8/Xbh9bfwuirnhQtOwjHzj3r/VtMeJeZmGFU/QPcSXU3qbWh14Pkjm/ftbY4w1aucSwtm72xqc5xEaZhsXiddi/zN8R45c/WHvlSnZXfSE4nJ2Ik9bYrUqN6EIMbxz0xxdrXU1io/zGY3fza/82Idmv4uL8cVoTr0YfFUSQNMaNFRuVvIx83jbuivHPOAZ1fde3mycQcxORfozUJqTs/qbb4PLv61vJItbGdk7LQ+QYc/nebffy5/4tXa1/5XM+2xjsC9q+TPt4JL/fT3R59UzlU8b+mx7TNum386qPPRcb2uzB7sVGq0i7YJE543GSvEkpDHoJMRAk1dM6uUFsWGaDSzOYk+lxs53+LSm2NtoZRp03see4ugHm+zggxYFfb98wUconcOpgLtxEE7XFLDa0ejTtOOmvFNUPDY4tIxwslPdDe4ywzxSxkfcv3Wbh4KaVtbnPJW56Mcce+0xpIyW3IjaiG5E0wVusrllXNsIyZbvEfVb1hfBQuiggS2r22C0P9Zk+5cUAc11NYkOpzYib+4YzrIHoMPqo2CYhpo0XG1KiusGYIeLSxIvQdy3bqNpvBKtXw7FnhL8ZvpmPhbJAsL0nQbONh7byrWNwKxYmjkfdJFvsU6JYK281FfIpa/+dMqZNeWdT6bHnYmO9Kxuh2BioYsFq6W0yYYdLdMBQDaeUs+o9ebFhvhLRLDa0Di7PMm8uNnSGYUdMBbJw5l5/NiWMh+I4tVIwLgERmFrFhrKlofu+FxzVwLVxGTaxMcY+/rJ0btawbWs2MAuzrR0no/gPk6MxbcrVzx57bAO774M5XzWvOIxJeAUfNn9HsZVVbGhbEtrqh9tN4zg5InaPYSKIGHNdR31n+HDO98T0sVmZqaJeM8lm9tFQ1JWFCEnyaLEhruTZx10bh9j26nuGxD9i64uOrj12f7Mk7JZnpBVP23tLi42xY/D8YiPy1cTYYe6/I1bCzGPapspCeH/PxUYfaMK25fe4b0jTtI2qn7EwO45YrSBgpJIbcWtDIMqyWySmig1d/PX2sCfpFpygAAAgAElEQVT53SxgdGWiv61COrOR2NdrCMLhAJAaSMIgqgbVEYl35QKD2arcFZEjmFrFhrjX23POaFuTMDO4cRk2sTHGPnULhoNOOlYYVtxSsSDoq5p/hMmRvU35+tljz3ixkfNVswgYk/DuTGykJrfKBsRbsCKxMTp2B2DU90M/GFFXK3u1P+e3r0SfCFZ+rjwBIlUn2o7csv6uOWMTzAyvQWyo/W5E7LROiPTMWrs3vujq3wOTJweH/d0imKT4ZWnnrGJDHUsz4+SIMVhmYRuPqhFGW/ELx4pcfxZyn9rW6XMbgzFtzn67Qdq8/2IjSswsB643INa+mhQb8R7C6Z3NS44MiXK8bWnY1jYwpIPYNLERzvJXX95gZcNWXiw22lmyYRunz1LlZ5nDbVTSlpaJiZy6HcO36wJiI5kUST4lJBwbl2EL7mPsM6x5MDArV3BmB2HDysZwBjf2j/ErGz3vXP3ssWeij7ZQBV89LLFhXH0V414LKT/TnFw1ziUn3jaqnF8kR8HwO+GKefPy9G8Mx8gT64++VeNu0X+UCzjaNu1abNjGoBFJ6YiUZfhtu79Z4oQ8ufY6uORmxHaxbLuUcVsUl7kfDbTHt92LjRGxZsBQFpvD83xTy84aK/nAYYiNzRhMezshNtqEXlKX01ZclL2j3lmBYZANO3+cmF4lf2V0ithQ3tHERrRHsWlj9+/W8mKxYQsU2qGydtbbS56Fw+U10bDO8ipL/az9EFvokNrA2T83oi1KshKL0LhtWkfRE45Ny7CJjXYVKO5bhu9rKz1eY+XEQRB7wr7bUDBbVzbGtClbP9V/Q4vaB2PNF0wrNCYBXXxBS6y1lQ3tBjnh0PRmZzZS8bUhkxMFk2K3HHOqLwpMs36RGvnC+ivj3XSxEfRNo4/K4jVuiNzPhNievOTAOu7G5drGoP4mqnDyzzYpKBtwGHP0cSfyD4MNQq7j2pkTA1J7bLs6LEJpzBhsbVdVY+0MWXEzo2xXwwpomTFUAtwQa0JsfnxsbteT6zFhRTIVMzJ/Q2xMhZdwsKrIaKtSv6wdz7g/didf+rcrGJKAdmlMusUi2E//+I0n3Q1RVgcWVxW8QU2afYsCpLdsGW2jqprYOrvMxlaevrIhflO4Aauz1WCZVb7WtLedXOdk0JNs1gaV4havV+XtWVUdrtyDV+2tL4aE2QtM9rb0Ac9fBvd9s/WV0JfL532fSiUcm5VhFBudkPODu2Sf+t+uPqxvVqlSt2q527r8rl8BKbVT/7f8yoa/hTDnc12i6S2tD/3QGntGig2Lr7Y+3/Y7v4/lLpkYITa6bYe57yhlyv1WmvBoE0vpqluv3xpWuwZXgiuxQUy/mi1HXXzzt0lI14yHWy4iuwlf0VY2orNafhyXaiutHvbbGLO+XYkBb3zUtoSEvhSJr/6bw5sqUz6vzdAX96NJfubdgNn2/dwY1PfdeCysyCYujom/4W0f9vMPY67gby/VLrbRVjZy7RT7l0HcxOc/YmHXxdncNd2eMBhex9/kEO0Y3I0Lm57ZqPtDdC7Jt01y9d8SazJjWrONzj+A3o/3iI2p6f9235u0D07ZR5sbdLXZF6kOgcjpO2KPx7S6Mki8vaCX7Bxx+249OnfuYXl3fyt46g5U/v8H390rEr1UvSzl2c5sXLt/7u48PXMX3i1KfbIZ1KG4G7tcqh/e0S7ZTrveNn8zUOis8Z5k/wlbUAj3zpZ2rhlnfr+k9L9/de6DYm9veCua5D/hftHc7Ob0Mqxio2Rls0/IKDegd1YI+kP572E/svQ188pG9WFbm6pHs/WzxJ6RYiM4+9IMrdGV4yHz0tfv/nv92yzD26OCXjFGbHQJQl+G+J2NxUYVNepbuMJObE4iihcNsVsf0KS4+Kro68VM6NM7AVNDXaUPSZzCOhdx4/ytZ+6s+N2Y8PcsBkUKvin3O4OPCglq3++GcS7sj2V//Rf3QfU7N319x4mNMWNGHI/lMSjyhSofuOkeFz7mkrdUKrykM5lmfxP8JZqgG45vlnZKcc828SnYJ/Knwu7V70ldpX8TqHVKJXfzhd08KxttvbxIoYhifetkvv9mx7Sp/VYPQJP+wsrGJGy8tCYCtiXUNdV4e3XJCYHt1YQvQQACENiEQJNcBxNGVYlVQmVMNjepAu/ORsC6JW62D26xIMbdGDZiY4sOyKeWIUDH1rnCZhmfo1QIQGDbBPRVCOLctm2x4feq1Yln7k5y+/iG39jh6/gjYmOH7sen5yYwWCbPXuc799f3ozyC3n7YiVpCAAJ5AvKWzPq98dfE5r/HE0sQqFeonr3VnyVd4iu7LJNxF7GxS//j2zMTeFksnX9QLJ0f6uzILLjK7QWfnaT3xs/yIQqBAAQgsCUC3b5923m2LdWKz0CgIlCJYu/AOVicYxsVXgABCEAAAhCAAAQgAAEILEIAsbEIVgqFAAQgAAEIQAACEIAABBAb+AAEIAABCEAAAhCAAAQgsAgBxMYiWCkUAhCAAAQgAAEIQAACEEBs4AMQgAAEIAABCEAAAhCAwCIEEBuLYKVQCEAAAhCAAAQgAAEIQACxgQ9AAAIQgAAEIAABCEAAAosQQGwsgpVCIQABCEAAAhCAAAQgAAHEBj4AAQhAAAIQgAAEIAABCCxCALGxCFYKhQAEIAABCEAAAhCAAAQQG/gABCAAAQhAAAIQgAAEILAIAcTGIlgpFAIQgAAEIAABCEAAAhBAbOADEIAABCAAAQhAAAIQgMAiBBAbi2ClUAhAAAIQgAAEIAABCEAAsYEPQAACEIAABCAAAQhAAAKLEEBsLIKVQiEAAQhAAAIQgAAEIAABxAY+AAEIQAACEIAABCAAAQgsQgCxsQhWCoUABCAAAQhAAAIQgAAEEBv4AAQgAAEIQAACEIAABCCwCAHExiJY5yr00r1//cy5R6/c5+/MVeahl/PSffLje+7ZW0/c849uHnpj9659Lz+97e49veOefP2xwzp7Zz4qDAEIQAACEBhNALExGtkWX/j2E3f73Qvn7pM426nXAu3Fm+fu1a/v2l9Tn2zKc7fc+avP3RwlzlCpvS3i8r3r7uybeVnWZV5zp18+dx/f2Fs0VBwCEIAABCBwkAQQG2s268GKjXr14cKdLjDDjdhYs0svJzacu8UK4JpNT90gAAEIQOBICSA21mx4xMYE68wtNiZUgVf0daIFVjbADQEIQAACEIDAegkgNtZrG+cQGxOsg9iYAG1rryyxsrG1yvMhCEAAAhCAAARGE0BsjEbWv1AnTkEBPxxuDaoOxH5x4k7vX7mLL14PHs5u+xDEhvjNotRsWa49e+BVoajr+VvP3Jl/YLf55km4JeWr9931hy+C7zTbob4PGKTOSzTlhNjb+ou8mvLqvw0ZluVcG5xpacXGqTu9unAXg7oNzwrYyhO2fDWMopoEtq9sdVXU46Sox8BP0ucLWhtHNm2/q/KV7OG1eZRt444h8erqOIbJ4MyG4JfVpyVbBf1o4BcuOLOh+KbjbMcGIY9XIQABCEAAAqMJIDZGI6tfaBOvQUIoiIM+QfOSnDYxC5LTqCpReWUC9djd/No/qNwka5my4gTWS8b8d0ckpOLBXFGUhC3Tz2yIvJrXL9+77V7+3D8E3LbBT0y95NVLyttyfWFiK0+oa9HG2989GNx2JflDLwy9+rViKyXIFFFRfyNMqnu2ub+3K2U2IRnYLLfKNopJIIB+ddM99w/zN4x8W6X8Qmq3KNis/W5iTOA1CEAAAhCAAARiAoiNSV6hJ8vtbHZ7taeWAJq2k+QSvC4Jz93wo20t0mft8wlppsyT1G1QebExXK3QjRTzHdFWodi4PONhdnUVKrx5yVKeJKLy7+1UbEgmMjMJX45tKInF9i27DyiTBJNiAC9BAAIQgAAEIGAhgNiwUIqe0bZ+tA/2CaaWALbbhZLXqc4lNtRyNhAb2raZFkFypSUnNvTZ+9AUYxJNi8BbXmw4FwpS0QXDFSKLL3g2EcXaiFWruE7KSliq/8wuNmS/iGyWYiWsmkwKAbwEAQhAAAIQgICJAGLDhCl4aESiPbvYUM48hHvcBzVeQmyo9Wi+nPydi4liQ+Xu78PXD4hHYsNUnlRX7TzA8PyIJm5MYqM9Y5M8lyA5b1A33w4biY36W8NzG/6qzXQm2jkkF22DM4qN1FY+i2ibEhN4BwIQgAAEIAABkQBiY5Jj2G88mlVsKHv5szP2S4iNjZK2KWJDPpsyfWXDWl5cV/GsyohZfJvYaFZAqsPUD9zLCb9LEp1bmEFsdN0lOHsylYl49ikQWr3IMYoNw8pG/kKFSYGBlyAAAQhAAAIQCAggNia5hLSnXi5oVrGhzNhmxUabvIVbm6QDs0qiFh+4tR1MV6ioP+qnnjtQ6qWKjWgbV1Bfc3mh2FCE0gJiw7X2vn/qrr64cNE5mqzv1m2+am/rMts2W3D1QC+a7rpLSQwZmMi+q53ZMIoNzd/bOvNr4zYD8xQEIAABCEBgBgKIjakQ25ld6arb4qaiV83tOrOKDUEciDceCW1qn+v28vvboAZtaIVUvzXJ3+bizwh3W2qCLVPl84/feDK4rSmskjgTXjykH3Juz8mE52HKC2iFbVTVB9tn+y0+ff2t5WkrG951w8pZic22UZX197cmhQfNYyOH3ONVA7tto9JLf/nspP/F92CVTVtFqazjXU0cMokPfqduE7OKDW+7l3Ajmb89q72h63XuZripcYL3IAABCEAAAkdOALGxiQNkfjOiSheV60onHxAPv9n+VkbxWx7Jw+aDxLVu9K1HT9zJZ/fchRv+NkiXgLVsykTsX5374N14dn24h799wfBbBsF5ieHvbCgHxKMzFkUC/si5s4dX3m8s9LP5D767N/gdlOjQtKk825mNW4/OnXvorSIUKDYXG3LSrLmsZItsmxO2HXxHOt8iitT+LSuT8MzGtfvn7s7TM3fh3WiWumkr3ceGv4ai8kBsbBIJeRcCEIAABCCgEkBsHLVz5K9TPWo8VeN3zMj0uyVYCQIQgAAEIAABCKyTAGJjnXbZUq12nEhvqZWbfcZ+GcBm35Hetp8Nmv/blAgBCEAAAhCAAAQ2J4DY2JzhHpeA2NCNN7zKdSe3Fym3j+2xw1F1CEAAAhCAAASOjABi48gMHja32u/uHWg/chxe818WZy4+cGdXd/pD0VuGU9nm6e6+v+Xm8jkIQAACEIAABA6QAGLjAI1KkyAAAQhAAAIQgAAEILAGAoiNNViBOkAAAhCAAAQgAAEIQOAACSA2DtCoNAkCEIAABCAAAQhAAAJrIIDYWIMVqAMEIAABCEAAAhCAAAQOkABi4wCNSpMgAAEIQAACEIAABCCwBgKIjTVYgTpAAAIQgAAEIAABCEDgAAkgNg7QqDQJAhCAAAQgAAEIQAACayCA2FiDFagDBCAAAQhAAAIQgAAEDpAAYuMAjUqTIAABCEAAAhCAAAQgsAYCiI01WIE6QAACEIAABCAAAQhA4AAJIDYO0Kg0CQIQgAAEIAABCEAAAmsggNhYgxWoAwQgAAEIQAACEIAABA6QAGLjAI1KkyAAAQhAAAIQgAAEILAGAoiNNViBOkAAAhCAAAQgAAEIQOAACSA2DtCoNAkCEIAABCAAAQhAAAJrIIDYWIMVqAMEIAABCEAAAhCAAAQOkABi4wCNSpMgAAEIQAACEIAABCCwBgKIjTVYgTpAAAIQgAAEIAABCEDgAAkgNg7QqDQJAhCAAAQgAAEIQAACayCA2FiDFagDBCAAAQhAAAIQgAAEDpAAYmMfjPrV++76Q+fOX33u7u5DfRev46V7//pjd/Llc/fxjcU/tqcfeOk++fE99+ytJ+75RzcXaENd/oU7dU++/tgt8YUFKr1BkXV7rz585T5/Z4Ni9uXVbz9xt9+9cO7+3P5T9t0z5x6tnePS/WdfHGGGepbj12cnRxInZuC17SLILxYgfmTjhYEgYsMASXykGYxf+3/84TKJ18tPb7t7Xzh3SnJd066C4wt3y0tYLt+77s6+uQajzh/rpO7Fm+fu1a/nl6hH55OLJd9TA9CS7y0oJPeG47L9Z0nrra3sOjbfWu1k2bGPHUcXy7fRQYQ4d+x+htiY6nhNwqu97ifCUz/RvrefwWDBhEUVG24gQDblHr6/9kFzWN8Fk6UmkJ6sfnZ6Rg/YmyTZa/PUOi850zm1TjOa0lbUgv3HVgH1qf2KQ86to776eFTXb9mxY0OTL/r6fuYXcyBZMEdRxcbx+hliY6rPCglvVZS34jGX4NjPYLBgR9bYT7Wl8b11DJrGyrrlkqWXX106987dI9g6NUPibjXXEs9NTOwvC/veLey7yH8T67RIXZKFLtd/Nm3LfsWh9YuNTe2x7+/vZ34xB/UFc5S9iXNzcLSVcRhiI1hlmCvJTyJMJbyt4JhpW9V+BoMFOzJiw9C715ssGSq/vkf2cfBYY53XWCfR29bbfxAbU8LDguPRlOqs6J39zC/mALigT+xNnJuDo62M/Rcbynama7MfbAyAZhJecX+edM6jKDYnjsRgoJTlIoHTDJp+9XMiSGQanodIlKvYpG1nxeYqPN8id/y67YOTMe7Wm7fci2+GZzZiRkL9KgbDvcP1eyfu9P6Vuwi/024TUlj7PtYuxQ+8JOQscJnkpyY/siRL9TNX90/dyRcX7kXCR1pO4SUFceKjl1m19e8vq4PHvkUj/x/RvmHdPR819w8hUEp2KnzOFT4XHpg22T36xKaM8r4t1svz/bYPnp5cuItiC0n5X+uLYjIr9um+L5n7tDAIS33cr480lKlbX1q7p84qjfCv7JknsaxhrLT4iGSPxir9ObRcHGq3Nxb9+aroz3UfC2zU2Npnmht/qmdNY0ITw78flF7E6xdFvPbjbuv/weUDWoKW9L18X5Dr3o+7g7HD1RcjvBb8JxrTta3U1nNyBqam8SmV65m/kTsTKtv2/JFzZ4PLa8bZ1tI3xOaZ+rBS5/KinUyOYh/v5L5xTRgvpDxOjtPDnHBjH7BpgcWf2nOxITlTy2zhA2kZsdEOoH0gb4JikIBaZqn0RFpKnF93SUNJwlL+wMvEwToWAvlyM3tkLWJDWiHygoQ/SEaMynd/ddM99w9HN+/6CX6f6AiJqtFWsa0LotHAaUn+Lf3d6keW73kDtTdASomcPfhKZQ77abpPjGxfiSwa3Ns65PtHTFx41xvYJN8ZJGumGa0NGRl9O/bBvrX9IBfHyahvqzHhA+f+tb4RbhOxcfnebffy5/7Ncq2/JGK4Iirys7Qj/SuZOOplXf59fduWLTa0cXooDrokOaiDGnsVPy1LbesxnNyQ+0nUJ4xjgvQN2c9GJKQ53yvFgSHOFwTU2/NCn5EP8gbxVNm9YD7/MZJpMRUQi87cpOGob6TFxhK2tfYNNUZnxud8LMj5xEl0qYE2uVZMffbPJscLn3P5/cfu5tf+LaNxTBmTo1gyiF09s+diQ5vVCIL2EnRzW3nCv2fOeKQO20adRv12PEjnRcEQjtpBq29edQEvX+7mYiNdl9zKhmT0OAHXviG1T26ztZ2W5N/gqGY/snxPeUadfR4RfMMkTal3xHRs+4KVKn8WNp6xNSSxme/3KxtWu9v8MFXvfF+rphXi28cSwieVFIXfyw/am4kNiVD+m5ItDdsixvpXSmzkxoBEghuKszGxJSs2oiQ0wUWYgAntYRsTcgewp61s5P3A2r9yiaWXBEpMAlvr9ZIF6DSmrUiMhYAlJtjspn+jr/MStt0gfhr7cN53cj5hGO/M44WFc03cGn8tPmDIKLb2yJ6LjfWubITXs2pbBVpLp7bThJ0m1YlSS72W5XJtWa+tZ1eGssJgDlCGlQ21MwkdPB9Y5IRMe0+ayZfrkxK8Q9Gbmk229ni7H20gNprE9crbijh6ZWOi2JijfaP6RwBefVdbqVINl1pZVWxjFWTiN6eIDbmOoZ9bBrVNVjamiY3irZCXYVVpDv9q65uPOWNjg7LKFMTKnNiIfxslEQsM285sY4L+DW022I8vFVPBfhbfi/1HqksusfQT+lgw2PuEYUKjSyj1qN+Os2PGp7A0m90sSfAStrX3DVmoDbdW+890uVRipa9+PucTebFhHy8snMeJDW1MtuYS235uz8VGP+CE4CbthR9D37SNqg9g1o5vGXhTAVh2/mHH1tmkxFtZs/S5jWG5Y2cuRmzVMooNlbmXCI8J5iJ37WxAa8jkuY3xvwti96P9FBtztG98/+h7nXnwGGv3QcfeXGxYfDu/jcoiNgyrBW3yZJhAEOukssz1jyHHfPLvb1eSg320xS+xspFNhEf4iFaWJOJGi42kCMvFCeuYsERCOsL3hLMow+2VucRyuHow9KWwbel6Zf2iTXIHZ1sG6XK3g2DM+DT0aKvdLEnwArYd0TemiqiBoGhZD/pzzie2IDa0cz/eiv10HxiT0C7/7P6LjZJRYDDLDP7GaJNiI57dsAyEWp3Gr2xos6ptvfRBPB8oRTlU74f93i93t2KjncEc+oJ9G9XolQ3rocAWn7LnN+eXdj/KJRHll7Rn4j3V213ZyB1WTNU9PXjm/NssNja6WngzsWH17XnEhu3c1/SVDXnbidXPe3s+cC8Nv2hvLVfvGwZh2j1i6YPybGZbxCxiI+WrhtWgXJ9pWqD+iOiSKxvmvpCdxQ5ijs/ljcfKj8hK4+wYgZQ/V7pJommz247Exgbx096Hh6NpO0HT5wQ7FhvKqmJot018IJdPbPPvhyE2tkms/VZCbLROPZjpN+yNtYqNVlzFKxSG/aKNg2tnROTgbQAclTtmn2dRvpB8a3WJg0YcMOVAu4TYsC2bixKtuQkrvOEpSdvsR5ZEZ6zYCEVAu2IW78eObvGxbhGao31qGYb+obzb+mLf56bbXU1kjYysvj2X2LDEhOSqn7+6Fya3SrJrTihaZs0NTNkfmpzDv4IxIL9SnE8qF13Z6GbS43pYbGt5ptuS8n34DXuMiPuYcsDeC5DmvjBWbHjP1ze2yZdNqDfpZSafbEx1IWDZQrPpNzxZ3UwmzmnbDeKnuQ9HayLN7YvtLWg5sWEY78zjhWBLY7xHbBjyz4N+RHCUwdaGKNj0y5rxbPtjd/KlfxvLkFzsbFJZ+r9dfVjfjFLNB1e/lprantAODsEzVVJw5R6U18Y1gThXrvqtdiWqZeQvqQqJyetuSXG4NJy6jSoeuLytZBO3UanBu21PsGWqev67B+5VeSPWgJ83My+1NzlQWf1oXrERi0F/a96MYsPbYpDuJ6n2WfuHFKFi//f7tTSBEF43PbC7GATnWdno6yL7didqhFtrUrOe0d+6/tnHhCgmjezT/bmCOBlt+1m8bVOU7E0iVP4tn9T3SXF45XhZDz8Oj+g/5Zfba7LDccESG7q4bDuzocah1CqFVA+lbjFly5jQC4Nu+9Jgq8ywbeGEUW/z/grmqh4Z37v77/XV6Pm+oI996WSuPhugTuwNthYrnFIxINyaHIwTmyWaY+xmu41qVtsa+0aMzzYGlj72+I3+emWp36g5SjT5mRnvPDtq40VkS2GCtX+37y9jfECaiF1LHs7KxlRLGPbapTrJ4G+ZK+xkZ5P2ZMYiYiCAmo/mt5n5HcurqXA9qt+O3O8l+H8P61X+7e6/C7+/EXKuWN10j4vfh3DtAF9UQmIUfuPa/XN35+mZuzg5rwWA8l7/7+GezSEXMfEMjB7tAR/8PUguzDM2yn7cgR+NSJaUq2PDA5x+QtAOwP/iPqh+p6Rfndkska7xzNE+W/8Qu3+0n7i0U71N59lbwW8DKHEg3cc2Z2Tx7d6P28OU4W8uWM5sNISEPdZhAmbq01JCLPGu7u/vb79LhenOL81bGefwr7ZGQqxULkcI2xDHQ5vY6ERkU2B4IDY+IN48KPmqmVl+TCi/Evtl0V+qbUguuEY0LK9s+113Wf3uj/z7G/6R4NRvHElxviIQ+FnuELYkdIY2lJhYBG/Cd8o/TZwMk/tI3m7WVUTJtg++u1dMXmorHm2NEradFD9tY0Q4XrVj1vOPbvaoFJ+IY2ctOOPxLvaretIjHi9EzkJ+c/7WM3fmjamIjVT0528QgMBoApal8dGF8gIEDp1A8vzcoTee9kFgdwSs50J2V0O+vBYCrGysxRLU48gJ1DNQ/mrNkQOh+RAwENhg77ehdB6BAAR0AogNvMNKALFhJcVzEFiQQBW0Xb+9a8FPUTQEDoeAcqPL4TSQlkBgvQQQG+u1zdpqhthYm0WoDwQgAAEImAhUWw+f3inOcX3svJ3Ypnd5CAIQ2JBAuYXxsxP634YYj+F1xMYxWJk2QgACEIAABCAAAQhAYAcEEBs7gM4nIQABCEAAAhCAAAQgcAwEEBvHYGXaCAEIQAACEIAABCAAgR0QQGzsADqfhAAEIAABCEAAAhCAwDEQQGwcg5VpIwQgAAEIQAACEIAABHZAALGxA+h8EgIQgAAEIAABCEAAAsdAALFxDFamjRCAAAQgAAEIQAACENgBAcTGDqDzSQhAAAIQgAAEIAABCBwDAcTGMViZNkIAAhCAAAQgAAEIQGAHBBAbO4DOJyEAAQhAAAIQgAAEIHAMBBAbx2Bl2ggBCEAAAhCAAAQgAIEdEEBs7AA6n4QABCAAAQhAAAIQgMAxEEBsHIOVaSMEIAABCEAAAhCAAAR2QACxsQPofBICEIAABCAAAQhAAALHQACxcQxWpo0QgAAEIAABCEAAAhDYAQHExg6g80kIQAACEIAABCAAAQgcAwHExjFYmTZCAAIQgAAEIAABCEBgBwQQGzuAzichAAEIQAACEIAABCBwDAQQG8dgZdoIAQhAAAIQgAAEIACBHRBAbOwA+uhPfvW+u/7QufNXn7u7o18+4BdKLp+duCdff+xu7qSZL90nP77nnr31xD3/aJ4avPz0trv3xWvnfng6e7uqsp/emb3cPPpL9/71x+7ky+fu4/OIuTgAABhLSURBVBv5pzd/orbL1Yev3OfvbF7acZdQs7xw8/vjzrjuPG7srOV8GAIQgMBOCCA2pmL/9hN3+90LV6SF/X8LJIhl4XUC6tzp1pK1qVC2+97le9fd2Te3dijCyiT6zL1489y9+vXmMrBuT8/w1qN5k+Wd8arE8gs3d3tUb2v6prs/nwjcrmev52uHGHt21g/WY1ZqAgEIQGCrBBAbU3E3CZT2+pyJ1SEO+FOx++/tPmmYU2zMWZZMd2e8EBtzuPu8ZVhs0oi2k5lF77wNGV/azvrB+KryBgQgAIGDIIDYmGpGbbD2VjzmEhyIjZUlz1115hQIdVlXC87G7yzJsiS2U/uh9B4rG3maBpu8/OrSuXfu7miLYr4JU5/YWT+YWmHegwAEILDnBA5DbASrDHMl+UnbpgbrVnDMtK0KsYHYmCPO7CzJMiS2c7SvKwOxkce5bZvka7S1J3bWD7bWQj4EAQhAYF0E9l9sKNuZri04Q1yZMDNY1wPateE5C+mcR1FUThyJYkMpKz5Y3My++36XEkFVuc/cnS8fuKt3i/MIife6w8yBTw/ZtzP2p+7ki4umvJaLULeqrPAcRnNI9Xv/Q7fcrTdfuBfhmQ0rF8FvxvtMvLJhYzIEFp7VqP7q20j08cC3PJ8clt6zbJOs0/tX7qI8hN79Z/NTy6F1qf233rxV2Ck8syHZtKhQcP5FLM/f1iPZsfieK74XndmwcgxjtOgr5+7O07PB5QB1XU+iM0RicjsxFvixZ1jNwIaqf7v6wPegL/n+Zu2TIaT6PffoiTv5LCx/2J+tfaTidnXqTk8u3EVzlqnto2KfiWLpiLjhFH90Qj9b1xhObSAAAQisnsCeiw1tgJAS1pltkREb7YDaC4lmEA8SfcssWyw22oRAHsT9pNlS/oCMlwT55bTtGZZ92738uX/DUGsPv15e8hIepC6/9aub7rl/uLrhmv92e5ha+laOy1zbn+JyLt+zMJF8UdlG1dpjwE64IUh97gPn/rW2UZ+geXzapNQvv/i32989GNywFfuz0AZpRc9Len1RLYrxsE9lVyiEfqD4r7NyjJpl/4ZdbEyPBbZ2GPw7tQ3U0Cdj6yv9XPAvax8R/bX6cOn/j93Nr/3b+WKmcsyS4kbfNwYTPzOvUM88AlEcBCAAgb0hsOdiQ5uF273YiFY+Mmc8UocwI7GhCp042Z8qNuKbfAwJTJkGRDdnycJI7yHhd/SrN6O2mbnY2pLvxbZybNvgZLGhvlu19apbObN8Q/YF49Wm2cQ/cWtaZBeNW1OXk+Z2r9w3M33K92Erx8jmo79hWNmYMxa0FR74g8EvR22jMpTnMjbNXJ0r2acVG7mV3xbB0L9HxA217q1Pv86uPudjBU9AAAIQOF4Cey421ruyEYoNbetA63qpLTzhQJxKLKMZY2VmWXV5NcGzJaWq2DBfDxsmLXqiEybPY7jos6ZjgoElCbNeXSyLDW27SFvLNhGziErtmXa7SvL3SnKJf1EhtQ7KisXg2mgfe7f65/VvYeufam+hrlaOofXHfMO6srFJLLC2I+vfWxMbCb/wYOtiw3619dD/7HGjXS0Sr0oWVlrHRAiehQAEIAAB5/ZcbBQmXOmZjXDwtCYJklPKZcmDsJwcDVeAkmcT/v/27i9FkuPAA3DcQ/PWMGLnEBpYgUGwxvYVhrHfjIelLZ/Bs8PSYt+0Zq4gLTIYBDKMDzHLGPptdA/Xv8yKjIzIjMru6onO+qQ3qSoz4ovIrvhlRkSeEjZK6yMG85ynB+RFlz6c1A8apgbcWZdB31kyNztTtiqTXCvnwsZUmN4eoytzXRCsDxvl8071neqwUbhme5XJdRvHfl8fBGodx+1Sf44uVM4/2Vj+t+DEekz174mwMX9Nlvtv7p0zo35ReY1MBuhiH+r6R/3fjcn1dxUh20CCAAECBKYFHn/Y2NYv+eGpfex+p84xeWdwPJ2pZppLqTynP9ko3Q3syjUxsK4OG/l556c82civAzjnk42Cy+K52YWyJnfh69p+6snG/N3d+3yykV1PUTHoqg4bFcfKXgvJ/P9TgkCNT03Q7z+TqcNpTzaWvaRzUT0m1tKkfyvrrsm7hI3avxsTT0Sy62/Sz58QNqb640lPgO70i+LLBAgQWK3AOsLGp2ieijuDg7vAd3gcX1qzMb7LnP8hH/AcfliLa0RKA+/0B77wA31K2MgPnAprNn5OB9yZtSBF43mX0kBxumslZa02qX2yUT9nPD9IHJ6n7slG4SlJRUAolWE8936+PUrugylfhfbuypHbZODkGxEnnyMNEaf00/k/ZDXtXA5N0VOXwt+vumtyImyMdpJL2vqEa6Q6vB6KM/x8brOK7Qcz7dH9t8xUvWzwnm8mnyBAgACBSEDYWNodMj/Wg+kHozUKxykQwwHP9sfvJlx9H+/qNCzUeACfO1b5v93+4UP49lf7Y87+eMZTHPof3+4HOn4iMv7RPs5Fz3wus2ZjPCiMpntFn++P2/23wTSMOIRUuuy+fxtefeh2s8kMfgt3T5Ph+267z+PUkVqT+rBxHBzltqeN6tCbHD9XO/0uXbMxCgeRd80UvM1y2sP2r8NpP3G/H7VpNGC8efrdfies7TX2zVXo15KM2mTcL+NrMLcF87t0K9NRX0jb5oRzjIJ6PH1xrp92A+HpvwVV/eEO/bv2mhz34Fxdc9dj/TVSDBuZGyK5NSr1fzeOoT7eejnbRxc/BV36Q+N7BAgQePwCwsbSNpydM5y9vzizx32+MPnpIrn52+PpUbn515N3d/s7j/v3CMT78Y++N5p7vRlQvQ7hOtolqR8cFRaIp+V78vJw3m5HosFdy6PPbiD59GazI1NI3mtQ4zJcw7I/avLkpOpJVM2ajZzJKWGjG4Qm7zzZ/ufcVsK/fhsGb9CI3jdT92Rje+Cx4fPXb0L4uuIN5+l1sQusz8LN7h0Mx9C7O8tu57J0mXjUh3Nz+9O7z7k++OFVeL95l8SPXx1CS8+da/eMY9o8uXN8fxVuNtbpouK0Ttt++j/h95n3bxTWX1S9CHSuHhX9e1PHwbUXnbf2mhwyHa+FN+F6846h5Frdhsfun6q/GzMLyzP97M1XP4br5D0n47qU/m7k++MoXAsbS38xfY8AgQsWEDYuuPGzVa+YLnMJZMumVV2CjDruBFwnSUcor5HQYwgQIEDgsgWEjctu/3HtDaK293wPb0Me3onXVQikd+ez26VeJJOwcZHNrtIECBCoEBA2KpAu6iPCxn56STi8WO6iGl9lqwVcJ55sVHcWHyRAgMBlCwgbl93+mdrPL1hHRoDAfs1FvPnCZZvwuOz2V3sCBAiUBYQNvYMAAQIECBAgQIAAgbMICBtnYXVQAgQIECBAgAABAgSEDX2AAAECBAgQIECAAIGzCAgbZ2F1UAIECBAgQIAAAQIEhA19gAABAgQIECBAgACBswgIG2dhdVACBAgQIECAAAECBIQNfYAAAQIECBAgQIAAgbMICBtnYXVQAgQIECBAgAABAgSEDX2AAAECBAgQIECAAIGzCAgbZ2F1UAIECBAgQIAAAQIEhA19gAABAgQIECBAgACBswgIG2dhdVACBAgQIECAAAECBIQNfYAAAQIECBAgQIAAgbMICBtnYXVQAgQIECBAgAABAgSEDX2AAAECBAgQIECAAIGzCAgbZ2F1UAIECBAgQIAAAQIEhA19gAABAgQIECBAgACBswgIG2dhdVACBAgQIECAAAECBIQNfYAAAQIECBAgQIAAgbMICBtnYXVQAgQIECBAgAABAgSEDX2AwB0E3v/Xl+E3f/kYwmcvwnd//1N4Fn4Iv/v8OoTXH8K3v7rDgc/21ffhz//+m/DjV9+Fn/747Gxn+dQH3rXLP1+FD//7y4cryv/9Lnz+dQhvPnwbTj7r9rvfXB360H0UedsPb8LV9z+FP/3bfRzPMQgQIECAwDIBYWOZ2+Zb+0Hlu36QmRxoN/C4DS/82C8W7r+4s3wXnrxsa4D8w28/D9f/OFbv+TZgPP1z+PLXb0M4uayH/hSeLxusVisfzvPFm4cdiFeX7z4+uA9Ub0MXADfHfIA+tA+eIbrmD+X4eb5N931p/nPVOof67vpkk6G3uiY+SIAAAQKPXEDYWNqAhx/z3ddzAzdhY6ns+HuddVMD5MKg/f+Fjftr+KVHKoeN7LW69DTJ98ph48nsTQdh454awWEIECBAoDkBYWNpkxzCxJPPPoaPP2cGE8LGUtlH8r192LhNn2AsDhsPVe0LfbLxALzjsFF/UmGj3sonCRAgQOBxCawjbMRPGTb+DzJ1oJum8PJFuP3L2/AxvesubDyuK+Hk0gobJ5M92BcyTzYe4NzCxgMgOwUBAgQIPDqBxx82kqDRtcDZ5/dHc6Jf/XO/SHgQcgphI53n35V3LiDtBzJX4cXL2/B2uyA5+mf03cPd9eGnMiEs+7nhU5psedN1Kpk2iP2r6nwoy1UX3nb1O8xhLzwtqDpu5pLMWkZhca7Ok/8/V9aq9sgMkAvfOy5G31durj5DgvGTjX6Re2I1vIa69QeDnjezviT3ndCvvak772Z11HY9w+2L8OLqbXh7WCNzLFu31iUq12fPNz3n3ebfaM1Gpl1yx90fJX1SmTlH3D8Pp86FjfETi7zj8y825U3WbNT275zj8y82Av94l9x4ybdHOrUsezxrPx7dj7sCEyBAoBWBRx42Cj+emYHAvYMPFmBmFotnwkb3Iz4cxNUtDD4OAKKBUDcYHQz+8wvXx4Oe8ud++I/9otLunIMwMxq0zU3L2bbRTXj293iHnsy5o4H1KChmBor3bjkYMCbBMRt2ap9s1LZHfp3Bl5sdleJdo3Jtku0bxQ4/bq8ffvtleP+f8a5F44XNS+7a7/tcMnDfXhd//eVucXrNebfVOA66xwuou/937KPR34T4uiiFjV14iY6bWx+0/e5/Pws/xTtbZRac14SNXL/N1+/E6yauaxT+42u32B6bzRf6zzU/DfDe/5I7IAECBAicWeCRh43SHcdkAHEOxGS3l9EgcBQ2JqZ2VOyUUxrsjUJEaRea7slBd4dydreacnm7O8LxVq/vTly8PSp3NjgdGm40ALoPy4+Z3a1q67wbAtet2ahtj1A59ac6eJU6/Vw43H8v7W+nh42686SlLA/Yc9MjS+coPyWKdwnLr5OobIduN7qo38+HjZn+VbEbVVrmYruM+t2M1dVhdzJh4xy/Fo5JgACBixZ45GGjlScbu+HZfrvNbpvLUdiYGHx1A+2JAXtpUNFNoen29i9NTel6effUYH7wOBXkhmFu6s5zccibbvU5Ncg55WnKHSz77YyLfxLiO+t1YaO2Pfr+E0/9yZWjGDbiLVen/qbVhYBR/5h68lRZzpq/tPMD9ugoxT5zl7BxnLa1D9P1oW2+7GX72gXi6eeK30vDRmlKXle9/slI4clQTeP5DAECBAgQyAg88rCxqVEDazb6fezjJxRPb4bv2Zi8Yzg/AKwNG6V53l3bd9MlZgc31YOTw5EH7ZCZOrOZqjH+Jxq8nxI2zmQZTqpzXdiobY982CiH6Xiq2XxwjOUzfa1Y73TtQlKeqadZs0/ONmWqPG+xrz5g2Ci240lPNk4MG4W/bfG0r+qwUTzWoW8kbTkMyff4/g8/wwQIECBwcQKPP2xsm+xT7kY1WDgZPd14HcL14KV+8082pl4EVxs2agee85+bD0DZqyWdDlV40lCaRpU1WPBkY4ll/2SjakpYXdiYd+4Ux3fjs3Ps7/3JRn5NyVy5x2slkt4wOx2n/ryfOmxk1y4tmkZ1QtiovG6qw8ZsexR++5p8x83F/U6rMAECBB61wDrCxqdogpm5+OGzJ5v3b9S9TTg/mBlWqjZsVL8peXadSP3bj1P+wdSugtPdwka5bHexHE2Fm+xXdWGjuj1GazYK8/vvO2wUBqFzYaO4ZqU3y4eJ/n+fcN7yU7jCOXLrfzLnKx13uCapW6Ce3t0fB4f5aVSlfttNWRwvVE93msuv2Ug2NNggj8PgTHtM9PXU41P8uXVOAgQIEHi8AsLG0rabmCZynHJRmE6U2zkm3U42KVd12OjXjqQLareDjZtw9X2369BxTUY/oEnr1N3VTMq2K8tml6TtjkL7qTC34dWHbrepZFCTGfhl13icMo0qfpp1j5Y78po67z5YGTaq26P0ZCNqx8K6iflgEHemdJA8Hugep9Ac+++2zW6eftfvjFUT6vp27p8UxecOuwX2m32Q+u1zc+fdSafre6LqdOfop5XFTzmrdqMq7HC12Wq3W7PRlSu73e5J06iOO7z1280OppKNpxV+jOowdd1s4sbBcTjVLQ4rvW/y5G7Qtlu/b676uvdT3dI2jHfwWvo31PcIECBA4CIEhI2lzTw1J70fQJTeLJ6sX6iYtlMfNrYVKsz1HwWazCLw7MsJx+stjoOY3ELyZACXzhfflOPNVz+G6817Q7qF7d2gpm4a1aHRcvPQ72DZd4XC/PbhXebasFHbHrknGeN2fP76TQhfD99cfrewsSnfaO3Epv2SaYC5he4177IZr3XIDKh7+PF558JGrq9v22n37pu//WI0aJ7fjSq/QDytx5OXb8Iv/nYd3na7OG2vut27cIYL9XNBaXysTYjbrfEKw/eW1Fw3cUDuHHfX+bNwswlzIXk/Rn7Dgsx22vHfxdzW2sLG0l8O3yNAgMDFCQgbF9fkKtymQO2Wq22WXqkIECBAgAABAjkBYUO/INCEwMIF+U2UXSEIECBAgAABAnkBYUPPIPBJBcpz7D9psZycAAECBAgQIHAPAsLGPSA6BIHlAu83C6B/H65vo/UFyw/mmwQIECBAgACBpgSEjaaaQ2EIECBAgAABAgQIrEdA2FhPW6oJAQIECBAgQIAAgaYEhI2mmkNhCBAgQIAAAQIECKxHQNhYT1uqCQECBAgQIECAAIGmBISNpppDYQgQIECAAAECBAisR0DYWE9bqgkBAgQIECBAgACBpgSEjaaaQ2EIECBAgAABAgQIrEdA2FhPW6oJAQIECBAgQIAAgaYEhI2mmkNhCBAgQIAAAQIECKxHQNhYT1uqCQECBAgQIECAAIGmBISNpppDYQgQIECAAAECBAisR0DYWE9bqgkBAgQIECBAgACBpgSEjaaaQ2EIECBAgAABAgQIrEdA2FhPW6oJAQIECBAgQIAAgaYEhI2mmkNhCBAgQIAAAQIECKxHQNhYT1uqCQECBAgQIECAAIGmBISNpppDYQgQIECAAAECBAisR0DYWE9bqgkBAgQIECBAgACBpgSEjaaaQ2EIECBAgAABAgQIrEdA2FhPW6oJAQIECBAgQIAAgaYEhI2mmkNhCBAgQIAAAQIECKxHQNhYT1uqCQECBAgQIECAAIGmBISNpppDYQgQIECAAAECBAisR0DYWE9bqgkBAgQIECBAgACBpgSEjaaaQ2EIECBAgAABAgQIrEdA2FhPW6oJAQIECBAgQIAAgaYEhI2mmkNhCBAgQIAAAQIECKxHQNhYT1uqCQECBAgQIECAAIGmBISNpppDYQgQIECAAAECBAisR0DYWE9bqgkBAgQIECBAgACBpgSEjaaaQ2EIECBAgAABAgQIrEdA2FhPW6oJAQIECBAgQIAAgaYEhI2mmkNhCBAgQIAAAQIECKxHQNhYT1uqCQECBAgQIECAAIGmBISNpppDYQgQIECAAAECBAisR0DYWE9bqgkBAgQIECBAgACBpgSEjaaaQ2EIECBAgAABAgQIrEdA2FhPW6oJAQIECBAgQIAAgaYEhI2mmkNhCBAgQIAAAQIECKxHQNhYT1uqCQECBAgQIECAAIGmBISNpppDYQgQIECAAAECBAisR0DYWE9bqgkBAgQIECBAgACBpgSEjaaaQ2EIECBAgAABAgQIrEdA2FhPW6oJAQIECBAgQIAAgaYEhI2mmkNhCBAgQIAAAQIECKxHQNhYT1uqCQECBAgQIECAAIGmBISNpppDYQgQIECAAAECBAisR0DYWE9bqgkBAgQIECBAgACBpgSEjaaaQ2EIECBAgAABAgQIrEdA2FhPW6oJAQIECBAgQIAAgaYEhI2mmkNhCBAgQIAAAQIECKxHQNhYT1uqCQECBAgQIECAAIGmBISNpppDYQgQIECAAAECBAisR0DYWE9bqgkBAgQIECBAgACBpgSEjaaaQ2EIECBAgAABAgQIrEdA2FhPW6oJAQIECBAgQIAAgaYEhI2mmkNhCBAgQIAAAQIECKxHQNhYT1uqCQECBAgQIECAAIGmBISNpppDYQgQIECAAAECBAisR+Bfji9FcnNjY4QAAAAASUVORK5CYII=;" vertex="1" parent="1">
          <mxGeometry x="30" y="630" width="264.18" height="173.13" as="geometry" />
        </mxCell>
      </root>
    </mxGraphModel>
  </diagram>
</mxfile>
